<?xml version="1.0" encoding="utf-8" standalone="no"?>
<svg xmlns:xsd="http://www.w3.org/2001/XMLSchema" xmlns:xsi="http://www.w3.org/2001/XMLSchema-instance" width="1280px" height="800px" version="1.1" xmlns="http://www.w3.org/2000/svg" xmlns:xlink="http://www.w3.org/1999/xlink">
  <defs>
    <style type="text/css">


circle.node {
  cursor: pointer;
  stroke: #000;
  stroke-width: .5px;
}

line.link {
  fill: none;
  stroke: #9ecae1;
  stroke-width: 1.5px;
}

    
</style>
  </defs>
  <line class="link" y2="220.27517899896895" x2="811.99243776438561" y1="250.75450684471346" x1="785.21708394929851" />
  <line class="link" y2="215.2654677963713" x2="802.13762280633716" y1="250.75450684471346" x1="785.21708394929851" />
  <line class="link" y2="227.93459076049646" x2="819.25572867566689" y1="250.75450684471346" x1="785.21708394929851" />
  <line class="link" y2="238.21348809262241" x2="823.35776906299782" y1="250.75450684471346" x1="785.21708394929851" />
  <line class="link" y2="270.81944841819706" x2="837.59901868825659" y1="283.16617448660571" x1="799.289924140103" />
  <line class="link" y2="300.82315491459451" x2="832.62912838696968" y1="283.16617448660571" x1="799.289924140103" />
  <line class="link" y2="261.21963325887089" x2="832.43439861070669" y1="283.16617448660571" x1="799.289924140103" />
  <line class="link" y2="280.77177577595495" x2="838.92683237217045" y1="283.16617448660571" x1="799.289924140103" />
  <line class="link" y2="291.01343796328365" x2="838.23481867404132" y1="283.16617448660571" x1="799.289924140103" />
  <line class="link" y2="257.18590505171466" x2="813.88356974209478" y1="272.78978403557142" x1="778.68936028626263" />
  <line class="link" y2="250.75450684471346" x2="785.21708394929851" y1="287.66629828425391" x1="736.49413097111733" />
  <line class="link" y2="283.16617448660571" x2="799.289924140103" y1="287.66629828425391" x1="736.49413097111733" />
  <line class="link" y2="272.78978403557142" x2="778.68936028626263" y1="287.66629828425391" x1="736.49413097111733" />
  <line class="link" y2="392.70656487212" x2="820.53303965432281" y1="365.25096649774292" x1="786.65617574460657" />
  <line class="link" y2="362.73659878333945" x2="823.21413638522677" y1="365.25096649774292" x1="786.65617574460657" />
  <line class="link" y2="379.45868757559219" x2="827.74391943916646" y1="365.25096649774292" x1="786.65617574460657" />
  <line class="link" y2="353.47177102016735" x2="828.1303906640735" y1="365.25096649774292" x1="786.65617574460657" />
  <line class="link" y2="344.87711996088041" x2="819.80279672228812" y1="365.25096649774292" x1="786.65617574460657" />
  <line class="link" y2="369.01803938909654" x2="830.56562123056653" y1="365.25096649774292" x1="786.65617574460657" />
  <line class="link" y2="397.27992954765989" x2="810.96730429216143" y1="365.25096649774292" x1="786.65617574460657" />
  <line class="link" y2="382.76171168150108" x2="818.44557099011729" y1="365.25096649774292" x1="786.65617574460657" />
  <line class="link" y2="402.26861599401019" x2="801.3298874995553" y1="365.25096649774292" x1="786.65617574460657" />
  <line class="link" y2="346.83454078248235" x2="762.747190259979" y1="346.1307916536673" x1="727.83554767234784" />
  <line class="link" y2="319.82829202395976" x2="756.47473328701551" y1="346.1307916536673" x1="727.83554767234784" />
  <line class="link" y2="365.25096649774292" x2="786.65617574460657" y1="346.1307916536673" x1="727.83554767234784" />
  <line class="link" y2="382.30396923840294" x2="740.58854918011025" y1="346.1307916536673" x1="727.83554767234784" />
  <line class="link" y2="381.35018708175454" x2="751.10608360864444" y1="346.1307916536673" x1="727.83554767234784" />
  <line class="link" y2="362.81888337998606" x2="764.41135288504108" y1="346.1307916536673" x1="727.83554767234784" />
  <line class="link" y2="332.06022547462135" x2="760.00431650613461" y1="346.1307916536673" x1="727.83554767234784" />
  <line class="link" y2="369.15511070699745" x2="754.380105992446" y1="346.1307916536673" x1="727.83554767234784" />
  <line class="link" y2="326.87834654152704" x2="767.96689979762266" y1="346.1307916536673" x1="727.83554767234784" />
  <line class="link" y2="339.56259899715235" x2="771.42981417950887" y1="346.1307916536673" x1="727.83554767234784" />
  <line class="link" y2="353.31255769589137" x2="770.44974826145449" y1="346.1307916536673" x1="727.83554767234784" />
  <line class="link" y2="375.50657768563258" x2="761.76732407114469" y1="346.1307916536673" x1="727.83554767234784" />
  <line class="link" y2="174.37128235517625" x2="756.62283616382911" y1="212.15658293101575" x1="739.29032483765059" />
  <line class="link" y2="186.308157217798" x2="771.66907616664912" y1="212.15658293101575" x1="739.29032483765059" />
  <line class="link" y2="196.55892540652556" x2="775.63778276806556" y1="212.15658293101575" x1="739.29032483765059" />
  <line class="link" y2="172.30558850933465" x2="746.37085363664426" y1="212.15658293101575" x1="739.29032483765059" />
  <line class="link" y2="178.7455827731751" x2="765.40406145287625" y1="212.15658293101575" x1="739.29032483765059" />
  <line class="link" y2="212.15658293101575" x2="739.29032483765059" y1="260.74119079934593" x1="698.216224466204" />
  <line class="link" y2="257.9895123215789" x2="738.79823082648807" y1="260.74119079934593" x1="698.216224466204" />
  <line class="link" y2="235.64742020048575" x2="727.20617459184632" y1="260.74119079934593" x1="698.216224466204" />
  <line class="link" y2="247.98799241594693" x2="737.15394976825939" y1="260.74119079934593" x1="698.216224466204" />
  <line class="link" y2="222.63990530591767" x2="713.847387314099" y1="260.74119079934593" x1="698.216224466204" />
  <line class="link" y2="225.83602481833495" x2="724.15240828302967" y1="260.74119079934593" x1="698.216224466204" />
  <line class="link" y2="237.79089702174514" x2="737.05156416428213" y1="260.74119079934593" x1="698.216224466204" />
  <line class="link" y2="361.70401776374752" x2="704.30388360404515" y1="344.52364308238589" x1="670.06230828978073" />
  <line class="link" y2="349.97071627488123" x2="704.10530118240035" y1="344.52364308238589" x1="670.06230828978073" />
  <line class="link" y2="373.91652651258977" x2="685.70254737215771" y1="344.52364308238589" x1="670.06230828978073" />
  <line class="link" y2="370.24202998393429" x2="697.52508691893115" y1="344.52364308238589" x1="670.06230828978073" />
  <line class="link" y2="334.17306273623092" x2="711.947390632935" y1="326.058096051864" x1="674.52881211452575" />
  <line class="link" y2="303.416972443708" x2="710.95964871992919" y1="304.40777270152864" x1="676.60163523467122" />
  <line class="link" y2="273.62342076946896" x2="685.59257180185989" y1="304.40777270152864" x1="676.60163523467122" />
  <line class="link" y2="280.20085727368104" x2="709.59040365768055" y1="304.40777270152864" x1="676.60163523467122" />
  <line class="link" y2="277.83245169106431" x2="698.32729126015158" y1="304.40777270152864" x1="676.60163523467122" />
  <line class="link" y2="290.33547861673787" x2="706.86965376033879" y1="304.40777270152864" x1="676.60163523467122" />
  <line class="link" y2="294.58282922566394" x2="717.3788139721629" y1="304.40777270152864" x1="676.60163523467122" />
  <line class="link" y2="320.6959723208272" x2="705.339005678747" y1="304.40777270152864" x1="676.60163523467122" />
  <line class="link" y2="312.31406255598836" x2="715.25544850203687" y1="304.40777270152864" x1="676.60163523467122" />
  <line class="link" y2="158.0362841138151" x2="580.33643429080576" y1="175.07969575554728" x1="609.03303263907378" />
  <line class="link" y2="173.30105424774453" x2="559.36926576815551" y1="175.07969575554728" x1="609.03303263907378" />
  <line class="link" y2="134.13475141517389" x2="605.82180417685072" y1="175.07969575554728" x1="609.03303263907378" />
  <line class="link" y2="139.7881541315648" x2="584.39823457456964" y1="175.07969575554728" x1="609.03303263907378" />
  <line class="link" y2="163.66651292395906" x2="559.0633291509763" y1="175.07969575554728" x1="609.03303263907378" />
  <line class="link" y2="136.15526911471625" x2="573.77017363784819" y1="175.07969575554728" x1="609.03303263907378" />
  <line class="link" y2="148.94115074059795" x2="651.97874044468381" y1="175.07969575554728" x1="609.03303263907378" />
  <line class="link" y2="179.25786950576864" x2="572.15511064132534" y1="175.07969575554728" x1="609.03303263907378" />
  <line class="link" y2="158.56219002964886" x2="569.7550018968002" y1="175.07969575554728" x1="609.03303263907378" />
  <line class="link" y2="189.66855959973935" x2="571.82465976282856" y1="175.07969575554728" x1="609.03303263907378" />
  <line class="link" y2="169.08468119729716" x2="571.84718280138793" y1="175.07969575554728" x1="609.03303263907378" />
  <line class="link" y2="147.63864316949727" x2="576.91017999821531" y1="175.07969575554728" x1="609.03303263907378" />
  <line class="link" y2="166.81964663705855" x2="648.33835704744354" y1="175.07969575554728" x1="609.03303263907378" />
  <line class="link" y2="158.99498246098747" x2="654.73162968553686" y1="175.07969575554728" x1="609.03303263907378" />
  <line class="link" y2="135.1364051924574" x2="632.14049425701739" y1="175.07969575554728" x1="609.03303263907378" />
  <line class="link" y2="144.03165843958894" x2="625.82232579632966" y1="175.07969575554728" x1="609.03303263907378" />
  <line class="link" y2="142.2816477789321" x2="645.65389674096389" y1="175.07969575554728" x1="609.03303263907378" />
  <line class="link" y2="141.59759439520164" x2="612.79502252048519" y1="175.07969575554728" x1="609.03303263907378" />
  <line class="link" y2="123.78382914522942" x2="604.79808409145278" y1="175.07969575554728" x1="609.03303263907378" />
  <line class="link" y2="124.04692855499331" x2="615.34292519565679" y1="175.07969575554728" x1="609.03303263907378" />
  <line class="link" y2="133.24706880877361" x2="641.28850741684073" y1="175.07969575554728" x1="609.03303263907378" />
  <line class="link" y2="129.4604462805747" x2="584.14055354850962" y1="175.07969575554728" x1="609.03303263907378" />
  <line class="link" y2="147.4813217902408" x2="636.27608542955716" y1="175.07969575554728" x1="609.03303263907378" />
  <line class="link" y2="156.65085690544032" x2="641.96679210534512" y1="175.07969575554728" x1="609.03303263907378" />
  <line class="link" y2="125.767713613296" x2="594.25956451426794" y1="175.07969575554728" x1="609.03303263907378" />
  <line class="link" y2="183.18575922613613" x2="561.81575057022337" y1="175.07969575554728" x1="609.03303263907378" />
  <line class="link" y2="144.24581574441217" x2="566.84739387759748" y1="175.07969575554728" x1="609.03303263907378" />
  <line class="link" y2="146.93917923283402" x2="591.52256154688791" y1="175.07969575554728" x1="609.03303263907378" />
  <line class="link" y2="153.1071690213312" x2="561.21538311430686" y1="175.07969575554728" x1="609.03303263907378" />
  <line class="link" y2="125.66183073672352" x2="627.70754369372355" y1="175.07969575554728" x1="609.03303263907378" />
  <line class="link" y2="133.15644943829616" x2="620.09219736714988" y1="175.07969575554728" x1="609.03303263907378" />
  <line class="link" y2="137.18777080107049" x2="595.87591891068541" y1="175.07969575554728" x1="609.03303263907378" />
  <line class="link" y2="217.7540079750905" x2="666.89203027816268" y1="230.75088605654614" x1="623.15937028590656" />
  <line class="link" y2="220.59042376156108" x2="579.64253360529756" y1="230.75088605654614" x1="623.15937028590656" />
  <line class="link" y2="210.58555982030296" x2="588.3423531039482" y1="230.75088605654614" x1="623.15937028590656" />
  <line class="link" y2="240.21423684264715" x2="660.37475148806459" y1="230.75088605654614" x1="623.15937028590656" />
  <line class="link" y2="198.87550500645935" x2="657.4407679734353" y1="230.75088605654614" x1="623.15937028590656" />
  <line class="link" y2="256.62589436571096" x2="646.68775879621035" y1="230.75088605654614" x1="623.15937028590656" />
  <line class="link" y2="264.96024478820152" x2="625.079583968543" y1="230.75088605654614" x1="623.15937028590656" />
  <line class="link" y2="255.54375254925378" x2="594.42172922534508" y1="230.75088605654614" x1="623.15937028590656" />
  <line class="link" y2="195.0154670264256" x2="631.433573935837" y1="230.75088605654614" x1="623.15937028590656" />
  <line class="link" y2="229.24519098926845" x2="666.09914017934682" y1="230.75088605654614" x1="623.15937028590656" />
  <line class="link" y2="260.00907436683224" x2="603.91688089039667" y1="230.75088605654614" x1="623.15937028590656" />
  <line class="link" y2="202.60417971957764" x2="639.975093137537" y1="230.75088605654614" x1="623.15937028590656" />
  <line class="link" y2="200.1099462811494" x2="608.4545737907805" y1="230.75088605654614" x1="623.15937028590656" />
  <line class="link" y2="220.35152546923288" x2="591.04358522596669" y1="230.75088605654614" x1="623.15937028590656" />
  <line class="link" y2="207.87096543506721" x2="651.36487424746292" y1="230.75088605654614" x1="623.15937028590656" />
  <line class="link" y2="207.09377965914166" x2="664.65521495565542" y1="230.75088605654614" x1="623.15937028590656" />
  <line class="link" y2="229.51553001192605" x2="656.01543153781165" y1="230.75088605654614" x1="623.15937028590656" />
  <line class="link" y2="248.07399165758468" x2="653.36412393268449" y1="230.75088605654614" x1="623.15937028590656" />
  <line class="link" y2="175.07969575554728" x2="609.03303263907378" y1="230.75088605654614" x1="623.15937028590656" />
  <line class="link" y2="262.37523879241934" x2="636.51724503095534" y1="230.75088605654614" x1="623.15937028590656" />
  <line class="link" y2="264.00574776360816" x2="613.999827145307" y1="230.75088605654614" x1="623.15937028590656" />
  <line class="link" y2="217.34901090105848" x2="655.96239209336454" y1="230.75088605654614" x1="623.15937028590656" />
  <line class="link" y2="245.76215737428842" x2="592.7814174298037" y1="230.75088605654614" x1="623.15937028590656" />
  <line class="link" y2="195.05947305118858" x2="646.48403017347346" y1="230.75088605654614" x1="623.15937028590656" />
  <line class="link" y2="242.80098984177795" x2="583.70657134734392" y1="230.75088605654614" x1="623.15937028590656" />
  <line class="link" y2="205.43814155828309" x2="598.63878980554136" y1="230.75088605654614" x1="623.15937028590656" />
  <line class="link" y2="232.50562412318484" x2="589.38355604305946" y1="230.75088605654614" x1="623.15937028590656" />
  <line class="link" y2="231.41766982702828" x2="578.78760249437516" y1="230.75088605654614" x1="623.15937028590656" />
  <line class="link" y2="196.35227632978868" x2="620.03102225915779" y1="230.75088605654614" x1="623.15937028590656" />
  <line class="link" y2="364.66722706080077" x2="591.854930094402" y1="337.85820167470087" x1="612.83429749595018" />
  <line class="link" y2="367.07006575410594" x2="624.41538445684955" y1="337.85820167470087" x1="612.83429749595018" />
  <line class="link" y2="356.96631436539917" x2="638.9423797359965" y1="337.85820167470087" x1="612.83429749595018" />
  <line class="link" y2="369.74999155681274" x2="605.5482086852021" y1="337.85820167470087" x1="612.83429749595018" />
  <line class="link" y2="329.40147569836108" x2="581.08293851492988" y1="337.85820167470087" x1="612.83429749595018" />
  <line class="link" y2="340.10463577568225" x2="643.91954539994822" y1="337.85820167470087" x1="612.83429749595018" />
  <line class="link" y2="307.8735538391324" x2="615.05462246647232" y1="337.85820167470087" x1="612.83429749595018" />
  <line class="link" y2="314.55027214340976" x2="590.96983303989884" y1="337.85820167470087" x1="612.83429749595018" />
  <line class="link" y2="343.79319853520133" x2="579.26787339451357" y1="337.85820167470087" x1="612.83429749595018" />
  <line class="link" y2="355.74292665595726" x2="582.79808204625567" y1="337.85820167470087" x1="612.83429749595018" />
  <line class="link" y2="238.92028092024583" x2="477.60644515054742" y1="263.354817816689" x1="514.62116152383533" />
  <line class="link" y2="229.39190126989814" x2="486.16904466420596" y1="263.354817816689" x1="514.62116152383533" />
  <line class="link" y2="315.87641355246632" x2="454.03841114863275" y1="309.8308012696549" x1="497.49380254685667" />
  <line class="link" y2="304.3644367586366" x2="454.4926412954519" y1="309.8308012696549" x1="497.49380254685667" />
  <line class="link" y2="326.90634406086269" x2="458.13433936207014" y1="309.8308012696549" x1="497.49380254685667" />
  <line class="link" y2="263.22129445189751" x2="459.19415821952583" y1="282.08583035383987" x1="498.74095861030924" />
  <line class="link" y2="272.87219270360993" x2="455.82531935744345" y1="282.08583035383987" x1="498.74095861030924" />
  <line class="link" y2="283.59583210296421" x2="456.17087584077524" y1="282.08583035383987" x1="498.74095861030924" />
  <line class="link" y2="254.71050264577343" x2="465.56642837350512" y1="282.08583035383987" x1="498.74095861030924" />
  <line class="link" y2="288.76342371350546" x2="524.820229880039" y1="301.44276408054179" x1="555.30625895180958" />
  <line class="link" y2="329.11446228693666" x2="520.516425843551" y1="301.44276408054179" x1="555.30625895180958" />
  <line class="link" y2="311.46396875165857" x2="513.15301082044357" y1="301.44276408054179" x1="555.30625895180958" />
  <line class="link" y2="291.19807055901509" x2="514.06311723945657" y1="301.44276408054179" x1="555.30625895180958" />
  <line class="link" y2="334.40182784631975" x2="549.99274663527945" y1="301.44276408054179" x1="555.30625895180958" />
  <line class="link" y2="318.74070414909374" x2="527.122720004048" y1="301.44276408054179" x1="555.30625895180958" />
  <line class="link" y2="263.354817816689" x2="514.62116152383533" y1="301.44276408054179" x1="555.30625895180958" />
  <line class="link" y2="265.10594630971661" x2="535.98588200053189" y1="301.44276408054179" x1="555.30625895180958" />
  <line class="link" y2="333.07265878432952" x2="539.12509490200193" y1="301.44276408054179" x1="555.30625895180958" />
  <line class="link" y2="267.51294607170871" x2="547.40078990416623" y1="301.44276408054179" x1="555.30625895180958" />
  <line class="link" y2="309.8308012696549" x2="497.49380254685667" y1="301.44276408054179" x1="555.30625895180958" />
  <line class="link" y2="272.77270434917432" x2="525.20227324673988" y1="301.44276408054179" x1="555.30625895180958" />
  <line class="link" y2="280.13954218546985" x2="517.653583835308" y1="301.44276408054179" x1="555.30625895180958" />
  <line class="link" y2="282.08583035383987" x2="498.74095861030924" y1="301.44276408054179" x1="555.30625895180958" />
  <line class="link" y2="332.091589329649" x2="529.85476128367418" y1="301.44276408054179" x1="555.30625895180958" />
  <line class="link" y2="300.7675010451552" x2="511.50995394084771" y1="301.44276408054179" x1="555.30625895180958" />
  <line class="link" y2="303.9161954019628" x2="522.042992267006" y1="301.44276408054179" x1="555.30625895180958" />
  <line class="link" y2="275.78833125357176" x2="534.65467545547017" y1="301.44276408054179" x1="555.30625895180958" />
  <line class="link" y2="320.70309841754664" x2="515.05668460361483" y1="301.44276408054179" x1="555.30625895180958" />
  <line class="link" y2="420.26519755536111" x2="685.88034645409641" y1="415.62557094054216" x1="647.98829127567035" />
  <line class="link" y2="435.02239071581914" x2="687.85769887434014" y1="415.62557094054216" x1="647.98829127567035" />
  <line class="link" y2="409.98635933065782" x2="689.68783157256689" y1="415.62557094054216" x1="647.98829127567035" />
  <line class="link" y2="400.46638947395553" x2="681.09642767599769" y1="415.62557094054216" x1="647.98829127567035" />
  <line class="link" y2="424.99301260029972" x2="694.47430139589335" y1="415.62557094054216" x1="647.98829127567035" />
  <line class="link" y2="462.89049648469859" x2="628.25645555102938" y1="431.83823763394832" x1="632.17782555410508" />
  <line class="link" y2="456.48092363577632" x2="663.79175192903733" y1="431.83823763394832" x1="632.17782555410508" />
  <line class="link" y2="456.91753591471115" x2="653.36491632901323" y1="431.83823763394832" x1="632.17782555410508" />
  <line class="link" y2="431.98087339560294" x2="667.5911551885016" y1="431.83823763394832" x1="632.17782555410508" />
  <line class="link" y2="418.85523940248333" x2="663.3729566342364" y1="431.83823763394832" x1="632.17782555410508" />
  <line class="link" y2="434.90454849435946" x2="600.185639172406" y1="431.83823763394832" x1="632.17782555410508" />
  <line class="link" y2="443.2716470186607" x2="662.39464890972158" y1="431.83823763394832" x1="632.17782555410508" />
  <line class="link" y2="403.07858275022556" x2="650.07555295512134" y1="431.83823763394832" x1="632.17782555410508" />
  <line class="link" y2="463.29569780745555" x2="644.08984768635344" y1="431.83823763394832" x1="632.17782555410508" />
  <line class="link" y2="453.48309816420516" x2="609.0172356069977" y1="431.83823763394832" x1="632.17782555410508" />
  <line class="link" y2="446.64232705401076" x2="671.83361918894525" y1="431.83823763394832" x1="632.17782555410508" />
  <line class="link" y2="441.52928659958206" x2="448.38799244315015" y1="421.02672225397106" x1="479.46622280493034" />
  <line class="link" y2="427.27476590301825" x2="442.11751113261414" y1="421.02672225397106" x1="479.46622280493034" />
  <line class="link" y2="400.694150975941" x2="446.39064207087995" y1="421.02672225397106" x1="479.46622280493034" />
  <line class="link" y2="413.37744463698186" x2="441.56792842242731" y1="421.02672225397106" x1="479.46622280493034" />
  <line class="link" y2="454.00714892098438" x2="512.02726165135175" y1="421.39976762015033" x1="533.13147347181223" />
  <line class="link" y2="439.70242348063124" x2="500.94761190270822" y1="421.39976762015033" x1="533.13147347181223" />
  <line class="link" y2="449.54589978523859" x2="501.53522311647504" y1="421.39976762015033" x1="533.13147347181223" />
  <line class="link" y2="421.79925496802969" x2="495.76911769988919" y1="421.39976762015033" x1="533.13147347181223" />
  <line class="link" y2="451.541072552809" x2="541.03126136134915" y1="421.39976762015033" x1="533.13147347181223" />
  <line class="link" y2="421.02672225397106" x2="479.46622280493034" y1="421.39976762015033" x1="533.13147347181223" />
  <line class="link" y2="433.34737064434961" x2="493.47795845551394" y1="421.39976762015033" x1="533.13147347181223" />
  <line class="link" y2="400.42910149712571" x2="499.66443590283717" y1="421.39976762015033" x1="533.13147347181223" />
  <line class="link" y2="410.40032631545461" x2="494.75235516316377" y1="421.39976762015033" x1="533.13147347181223" />
  <line class="link" y2="406.86313716378612" x2="532.26956942535753" y1="402.51699852529475" x1="567.40926738720759" />
  <line class="link" y2="380.04973607430207" x2="541.74673432161" y1="402.51699852529475" x1="567.40926738720759" />
  <line class="link" y2="396.43050872497548" x2="529.161063771989" y1="402.51699852529475" x1="567.40926738720759" />
  <line class="link" y2="387.06309678602094" x2="532.89435543836487" y1="402.51699852529475" x1="567.40926738720759" />
  <line class="link" y2="422.95824583204347" x2="544.3360224745752" y1="429.44303749241726" x1="574.45795762460659" />
  <line class="link" y2="440.14373611521637" x2="539.20169386460941" y1="429.44303749241726" x1="574.45795762460659" />
  <line class="link" y2="457.74178981470908" x2="551.00311365772029" y1="429.44303749241726" x1="574.45795762460659" />
  <line class="link" y2="550.90164530584116" x2="688.05828907677142" y1="519.88474590852957" x1="663.610736445665" />
  <line class="link" y2="541.50032677279569" x2="694.93101473709044" y1="519.88474590852957" x1="663.610736445665" />
  <line class="link" y2="555.37181804152772" x2="676.4161174857054" y1="519.88474590852957" x1="663.610736445665" />
  <line class="link" y2="497.31204947202019" x2="727.4293694987864" y1="488.73630936439611" x1="690.52660753861915" />
  <line class="link" y2="474.63092394874582" x2="729.2962034961339" y1="488.73630936439611" x1="690.52660753861915" />
  <line class="link" y2="507.69891893799127" x2="730.16994312299448" y1="488.73630936439611" x1="690.52660753861915" />
  <line class="link" y2="484.43373020853659" x2="731.06674716783459" y1="488.73630936439611" x1="690.52660753861915" />
  <line class="link" y2="493.32117411430585" x2="737.02938093693706" y1="488.73630936439611" x1="690.52660753861915" />
  <line class="link" y2="533.88725424110169" x2="708.14808726802414" y1="506.50438878995607" x1="678.99648505288269" />
  <line class="link" y2="516.06202328016911" x2="716.78340171673642" y1="506.50438878995607" x1="678.99648505288269" />
  <line class="link" y2="526.8823139169557" x2="716.42671861892632" y1="506.50438878995607" x1="678.99648505288269" />
  <line class="link" y2="560.26983495129616" x2="657.56998096551183" y1="526.5728201084205" x1="641.52660350353381" />
  <line class="link" y2="562.29257076356225" x2="631.06517356291261" y1="526.5728201084205" x1="641.52660350353381" />
  <line class="link" y2="563.81739501241316" x2="644.68112254016535" y1="526.5728201084205" x1="641.52660350353381" />
  <line class="link" y2="528.33067146795906" x2="557.56208255491185" y1="507.54662840693891" x1="595.8788281738149" />
  <line class="link" y2="505.59186200407049" x2="551.53429531321308" y1="507.54662840693891" x1="595.8788281738149" />
  <line class="link" y2="518.58390643541611" x2="563.23794859661052" y1="507.54662840693891" x1="595.8788281738149" />
  <line class="link" y2="547.36901384941393" x2="590.40757360099758" y1="507.54662840693891" x1="595.8788281738149" />
  <line class="link" y2="529.9189475695116" x2="571.99878184932152" y1="507.54662840693891" x1="595.8788281738149" />
  <line class="link" y2="538.65213331754933" x2="611.85126633714958" y1="507.54662840693891" x1="595.8788281738149" />
  <line class="link" y2="495.02720594713372" x2="558.3938649160458" y1="507.54662840693891" x1="595.8788281738149" />
  <line class="link" y2="543.45879700925741" x2="601.10166739369834" y1="507.54662840693891" x1="595.8788281738149" />
  <line class="link" y2="538.84037713529187" x2="585.30441718020268" y1="507.54662840693891" x1="595.8788281738149" />
  <line class="link" y2="488.57747802247951" x2="566.8138237189039" y1="507.54662840693891" x1="595.8788281738149" />
  <line class="link" y2="537.04219774536853" x2="564.67479925167686" y1="507.54662840693891" x1="595.8788281738149" />
  <line class="link" y2="543.1041637408631" x2="575.337359598068" y1="507.54662840693891" x1="595.8788281738149" />
  <line class="link" y2="517.610957233301" x2="552.19346751267972" y1="507.54662840693891" x1="595.8788281738149" />
  <line class="link" y2="480.36927228040241" x2="576.84521367994739" y1="507.54662840693891" x1="595.8788281738149" />
  <line class="link" y2="506.06030858543329" x2="561.90597322578265" y1="507.54662840693891" x1="595.8788281738149" />
  <line class="link" y2="519.88474590852957" x2="663.610736445665" y1="483.18659240200884" x1="636.18770040500328" />
  <line class="link" y2="488.73630936439611" x2="690.52660753861915" y1="483.18659240200884" x1="636.18770040500328" />
  <line class="link" y2="506.50438878995607" x2="678.99648505288269" y1="483.18659240200884" x1="636.18770040500328" />
  <line class="link" y2="513.31506610046961" x2="649.27296722990309" y1="483.18659240200884" x1="636.18770040500328" />
  <line class="link" y2="526.5728201084205" x2="641.52660350353381" y1="483.18659240200884" x1="636.18770040500328" />
  <line class="link" y2="507.54662840693891" x2="595.8788281738149" y1="483.18659240200884" x1="636.18770040500328" />
  <line class="link" y2="479.61998803697196" x2="604.67773321903007" y1="483.18659240200884" x1="636.18770040500328" />
  <line class="link" y2="506.7775919315585" x2="615.01427714899717" y1="483.18659240200884" x1="636.18770040500328" />
  <line class="link" y2="503.4444852993845" x2="663.36728261001974" y1="483.18659240200884" x1="636.18770040500328" />
  <line class="link" y2="515.40443682884984" x2="629.31750407630545" y1="483.18659240200884" x1="636.18770040500328" />
  <line class="link" y2="489.40031155765269" x2="670.94085385874291" y1="483.18659240200884" x1="636.18770040500328" />
  <line class="link" y2="415.62557094054216" x2="647.98829127567035" y1="409.48563331492676" x1="606.02868648747813" />
  <line class="link" y2="431.83823763394832" x2="632.17782555410508" y1="409.48563331492676" x1="606.02868648747813" />
  <line class="link" y2="421.39976762015033" x2="533.13147347181223" y1="409.48563331492676" x1="606.02868648747813" />
  <line class="link" y2="402.51699852529475" x2="567.40926738720759" y1="409.48563331492676" x1="606.02868648747813" />
  <line class="link" y2="429.44303749241726" x2="574.45795762460659" y1="409.48563331492676" x1="606.02868648747813" />
  <line class="link" y2="483.18659240200884" x2="636.18770040500328" y1="409.48563331492676" x1="606.02868648747813" />
  <line class="link" y2="392.2139465814048" x2="629.60778570243951" y1="409.48563331492676" x1="606.02868648747813" />
  <line class="link" y2="287.66629828425391" x2="736.49413097111733" y1="320" x1="640" />
  <line class="link" y2="346.1307916536673" x2="727.83554767234784" y1="320" x1="640" />
  <line class="link" y2="260.74119079934593" x2="698.216224466204" y1="320" x1="640" />
  <line class="link" y2="344.52364308238589" x2="670.06230828978073" y1="320" x1="640" />
  <line class="link" y2="326.058096051864" x2="674.52881211452575" y1="320" x1="640" />
  <line class="link" y2="304.40777270152864" x2="676.60163523467122" y1="320" x1="640" />
  <line class="link" y2="230.75088605654614" x2="623.15937028590656" y1="320" x1="640" />
  <line class="link" y2="337.85820167470087" x2="612.83429749595018" y1="320" x1="640" />
  <line class="link" y2="301.44276408054179" x2="555.30625895180958" y1="320" x1="640" />
  <line class="link" y2="409.48563331492676" x2="606.02868648747813" y1="320" x1="640" />
  <circle style="fill: rgb(253, 141, 60);" class="node" cy="220.27517899896895" cx="811.99243776438561" r="6.2753485958948927" />
  <circle style="fill: rgb(253, 141, 60);" class="node" cy="215.2654677963713" cx="802.13762280633716" r="6.1741396161732522" />
  <circle style="fill: rgb(253, 141, 60);" class="node" cy="227.93459076049646" cx="819.25572867566689" r="8.1939001702485985" />
  <circle style="fill: rgb(253, 141, 60);" class="node" cy="238.21348809262241" cx="823.35776906299782" r="2.7258026340878021" />
  <circle style="fill: rgb(198, 219, 239);" class="node" cy="250.75450684471346" cx="785.21708394929851" r="4.5" />
  <circle style="fill: rgb(253, 141, 60);" class="node" cy="270.81944841819706" cx="837.59901868825659" r="5.94474557908074" />
  <circle style="fill: rgb(253, 141, 60);" class="node" cy="300.82315491459451" cx="832.62912838696968" r="7.5703368485160549" />
  <circle style="fill: rgb(253, 141, 60);" class="node" cy="261.21963325887089" cx="832.43439861070669" r="8.8543774484714621" />
  <circle style="fill: rgb(253, 141, 60);" class="node" cy="280.77177577595495" cx="838.92683237217045" r="7.6902535718921516" />
  <circle style="fill: rgb(253, 141, 60);" class="node" cy="291.01343796328365" cx="838.23481867404132" r="5.8446556784809829" />
  <circle style="fill: rgb(198, 219, 239);" class="node" cy="283.16617448660571" cx="799.289924140103" r="4.5" />
  <circle style="fill: rgb(253, 141, 60);" class="node" cy="257.18590505171466" cx="813.88356974209478" r="8.41070746132571" />
  <circle style="fill: rgb(198, 219, 239);" class="node" cy="272.78978403557142" cx="778.68936028626263" r="4.5" />
  <circle style="fill: rgb(198, 219, 239);" class="node" cy="287.66629828425391" cx="736.49413097111733" r="4.5" />
  <circle style="fill: rgb(253, 141, 60);" class="node" cy="346.83454078248235" cx="762.747190259979" r="13.042239071570496" />
  <circle style="fill: rgb(253, 141, 60);" class="node" cy="319.82829202395976" cx="756.47473328701551" r="7.6432977176085455" />
  <circle style="fill: rgb(253, 141, 60);" class="node" cy="392.70656487212" cx="820.53303965432281" r="4.4530888156424639" />
  <circle style="fill: rgb(253, 141, 60);" class="node" cy="362.73659878333945" cx="823.21413638522677" r="4.524378410345447" />
  <circle style="fill: rgb(253, 141, 60);" class="node" cy="379.45868757559219" cx="827.74391943916646" r="3.7080992435478315" />
  <circle style="fill: rgb(253, 141, 60);" class="node" cy="353.47177102016735" cx="828.1303906640735" r="9.35200513259055" />
  <circle style="fill: rgb(253, 141, 60);" class="node" cy="344.87711996088041" cx="819.80279672228812" r="4.6925472826600263" />
  <circle style="fill: rgb(253, 141, 60);" class="node" cy="369.01803938909654" cx="830.56562123056653" r="3.7175260590882209" />
  <circle style="fill: rgb(253, 141, 60);" class="node" cy="397.27992954765989" cx="810.96730429216143" r="4.0360872141221131" />
  <circle style="fill: rgb(253, 141, 60);" class="node" cy="382.76171168150108" cx="818.44557099011729" r="4.0926763859362243" />
  <circle style="fill: rgb(253, 141, 60);" class="node" cy="402.26861599401019" cx="801.3298874995553" r="4.5188494110780013" />
  <circle style="fill: rgb(198, 219, 239);" class="node" cy="365.25096649774292" cx="786.65617574460657" r="4.5" />
  <circle style="fill: rgb(253, 141, 60);" class="node" cy="382.30396923840294" cx="740.58854918011025" r="3.2264531609803355" />
  <circle style="fill: rgb(253, 141, 60);" class="node" cy="381.35018708175454" cx="751.10608360864444" r="7.1944422994419792" />
  <circle style="fill: rgb(253, 141, 60);" class="node" cy="362.81888337998606" cx="764.41135288504108" r="2.118962010041709" />
  <circle style="fill: rgb(253, 141, 60);" class="node" cy="332.06022547462135" cx="760.00431650613461" r="7.4786362393152945" />
  <circle style="fill: rgb(253, 141, 60);" class="node" cy="369.15511070699745" cx="754.380105992446" r="7.4390859653589159" />
  <circle style="fill: rgb(253, 141, 60);" class="node" cy="326.87834654152704" cx="767.96689979762266" r="9.59218431849597" />
  <circle style="fill: rgb(253, 141, 60);" class="node" cy="339.56259899715235" cx="771.42981417950887" r="14.133294025102568" />
  <circle style="fill: rgb(253, 141, 60);" class="node" cy="353.31255769589137" cx="770.44974826145449" r="3.3406586176980135" />
  <circle style="fill: rgb(253, 141, 60);" class="node" cy="375.50657768563258" cx="761.76732407114469" r="7.7498387079990252" />
  <circle style="fill: rgb(198, 219, 239);" class="node" cy="346.1307916536673" cx="727.83554767234784" r="4.5" />
  <circle style="fill: rgb(253, 141, 60);" class="node" cy="174.37128235517625" cx="756.62283616382911" r="2.6851443164195103" />
  <circle style="fill: rgb(253, 141, 60);" class="node" cy="186.308157217798" cx="771.66907616664912" r="6.55286197016235" />
  <circle style="fill: rgb(253, 141, 60);" class="node" cy="196.55892540652556" cx="775.63778276806556" r="9.8994949366116654" />
  <circle style="fill: rgb(253, 141, 60);" class="node" cy="172.30558850933465" cx="746.37085363664426" r="3.6249137920783716" />
  <circle style="fill: rgb(253, 141, 60);" class="node" cy="178.7455827731751" cx="765.40406145287625" r="4.7116875957558992" />
  <circle style="fill: rgb(198, 219, 239);" class="node" cy="212.15658293101575" cx="739.29032483765059" r="4.5" />
  <circle style="fill: rgb(253, 141, 60);" class="node" cy="257.9895123215789" cx="738.79823082648807" r="4.1940433951021543" />
  <circle style="fill: rgb(253, 141, 60);" class="node" cy="235.64742020048575" cx="727.20617459184632" r="4.6529560496527367" />
  <circle style="fill: rgb(253, 141, 60);" class="node" cy="247.98799241594693" cx="737.15394976825939" r="2.4207436873820409" />
  <circle style="fill: rgb(253, 141, 60);" class="node" cy="222.63990530591767" cx="713.847387314099" r="5.77148161220323" />
  <circle style="fill: rgb(253, 141, 60);" class="node" cy="225.83602481833495" cx="724.15240828302967" r="2.7784887978899606" />
  <circle style="fill: rgb(253, 141, 60);" class="node" cy="237.79089702174514" cx="737.05156416428213" r="5.7636793803958248" />
  <circle style="fill: rgb(198, 219, 239);" class="node" cy="260.74119079934593" cx="698.216224466204" r="4.5" />
  <circle style="fill: rgb(253, 141, 60);" class="node" cy="361.70401776374752" cx="704.30388360404515" r="9.3984041198492854" />
  <circle style="fill: rgb(253, 141, 60);" class="node" cy="349.97071627488123" cx="704.10530118240035" r="4.1617304093369629" />
  <circle style="fill: rgb(253, 141, 60);" class="node" cy="373.91652651258977" cx="685.70254737215771" r="6.0191361506448748" />
  <circle style="fill: rgb(253, 141, 60);" class="node" cy="370.24202998393429" cx="697.52508691893115" r="10.032945728947208" />
  <circle style="fill: rgb(198, 219, 239);" class="node" cy="344.52364308238589" cx="670.06230828978073" r="4.5" />
  <circle style="fill: rgb(253, 141, 60);" class="node" cy="334.17306273623092" cx="711.947390632935" r="6.4156059729381765" />
  <circle style="fill: rgb(198, 219, 239);" class="node" cy="326.058096051864" cx="674.52881211452575" r="4.5" />
  <circle style="fill: rgb(253, 141, 60);" class="node" cy="303.416972443708" cx="710.95964871992919" r="3.2893768406797053" />
  <circle style="fill: rgb(253, 141, 60);" class="node" cy="273.62342076946896" cx="685.59257180185989" r="3.6551333764994132" />
  <circle style="fill: rgb(253, 141, 60);" class="node" cy="280.20085727368104" cx="709.59040365768055" r="1.7860571099491751" />
  <circle style="fill: rgb(253, 141, 60);" class="node" cy="277.83245169106431" cx="698.32729126015158" r="10.245974819410792" />
  <circle style="fill: rgb(253, 141, 60);" class="node" cy="290.33547861673787" cx="706.86965376033879" r="5.31224999411737" />
  <circle style="fill: rgb(253, 141, 60);" class="node" cy="294.58282922566394" cx="717.3788139721629" r="9.9914963844261084" />
  <circle style="fill: rgb(253, 141, 60);" class="node" cy="320.6959723208272" cx="705.339005678747" r="4.70425339453563" />
  <circle style="fill: rgb(253, 141, 60);" class="node" cy="312.31406255598836" cx="715.25544850203687" r="4.1" />
  <circle style="fill: rgb(198, 219, 239);" class="node" cy="304.40777270152864" cx="676.60163523467122" r="4.5" />
  <circle style="fill: rgb(253, 141, 60);" class="node" cy="217.7540079750905" cx="666.89203027816268" r="4.0199502484483558" />
  <circle style="fill: rgb(253, 141, 60);" class="node" cy="220.59042376156108" cx="579.64253360529756" r="3.2046840717924132" />
  <circle style="fill: rgb(253, 141, 60);" class="node" cy="210.58555982030296" cx="588.3423531039482" r="6.2377880695002776" />
  <circle style="fill: rgb(253, 141, 60);" class="node" cy="240.21423684264715" cx="660.37475148806459" r="2.98496231131986" />
  <circle style="fill: rgb(253, 141, 60);" class="node" cy="198.87550500645935" cx="657.4407679734353" r="5.3786615435440819" />
  <circle style="fill: rgb(253, 141, 60);" class="node" cy="256.62589436571096" cx="646.68775879621035" r="7.143528539874394" />
  <circle style="fill: rgb(253, 141, 60);" class="node" cy="264.96024478820152" cx="625.079583968543" r="6.0638271743182131" />
  <circle style="fill: rgb(253, 141, 60);" class="node" cy="255.54375254925378" cx="594.42172922534508" r="2.7946377224964243" />
  <circle style="fill: rgb(253, 141, 60);" class="node" cy="195.0154670264256" cx="631.433573935837" r="6.4350602172784672" />
  <circle style="fill: rgb(253, 141, 60);" class="node" cy="229.24519098926845" cx="666.09914017934682" r="3.0545048698602528" />
  <circle style="fill: rgb(253, 141, 60);" class="node" cy="260.00907436683224" cx="603.91688089039667" r="7.1624018317879932" />
  <circle style="fill: rgb(253, 141, 60);" class="node" cy="202.60417971957764" cx="639.975093137537" r="6.0141499815019577" />
  <circle style="fill: rgb(253, 141, 60);" class="node" cy="200.1099462811494" cx="608.4545737907805" r="5.6920997883030831" />
  <circle style="fill: rgb(253, 141, 60);" class="node" cy="220.35152546923288" cx="591.04358522596669" r="5.2268537381487921" />
  <circle style="fill: rgb(253, 141, 60);" class="node" cy="207.87096543506721" cx="651.36487424746292" r="4.5155287619502547" />
  <circle style="fill: rgb(253, 141, 60);" class="node" cy="207.09377965914166" cx="664.65521495565542" r="3.4842502780368689" />
  <circle style="fill: rgb(253, 141, 60);" class="node" cy="229.51553001192605" cx="656.01543153781165" r="6.1220911460055865" />
  <circle style="fill: rgb(253, 141, 60);" class="node" cy="248.07399165758468" cx="653.36412393268449" r="2.9034462281915951" />
  <circle style="fill: rgb(253, 141, 60);" class="node" cy="158.0362841138151" cx="580.33643429080576" r="2.4351591323771844" />
  <circle style="fill: rgb(253, 141, 60);" class="node" cy="173.30105424774453" cx="559.36926576815551" r="1.8165902124584949" />
  <circle style="fill: rgb(253, 141, 60);" class="node" cy="134.13475141517389" cx="605.82180417685072" r="1.6941074346097416" />
  <circle style="fill: rgb(253, 141, 60);" class="node" cy="139.7881541315648" cx="584.39823457456964" r="1.6643316977093239" />
  <circle style="fill: rgb(253, 141, 60);" class="node" cy="163.66651292395906" cx="559.0633291509763" r="1.708800749063506" />
  <circle style="fill: rgb(253, 141, 60);" class="node" cy="136.15526911471625" cx="573.77017363784819" r="2.4392621835300936" />
  <circle style="fill: rgb(253, 141, 60);" class="node" cy="148.94115074059795" cx="651.97874044468381" r="2.4372115213907883" />
  <circle style="fill: rgb(253, 141, 60);" class="node" cy="179.25786950576864" cx="572.15511064132534" r="2.1447610589527217" />
  <circle style="fill: rgb(253, 141, 60);" class="node" cy="158.56219002964886" cx="569.7550018968002" r="2.4556058315617348" />
  <circle style="fill: rgb(253, 141, 60);" class="node" cy="189.66855959973935" cx="571.82465976282856" r="2.5" />
  <circle style="fill: rgb(253, 141, 60);" class="node" cy="169.08468119729716" cx="571.84718280138793" r="2.7349588662354689" />
  <circle style="fill: rgb(253, 141, 60);" class="node" cy="147.63864316949727" cx="576.91017999821531" r="2.1470910553583886" />
  <circle style="fill: rgb(253, 141, 60);" class="node" cy="166.81964663705855" cx="648.33835704744354" r="2.4433583445741229" />
  <circle style="fill: rgb(253, 141, 60);" class="node" cy="158.99498246098747" cx="654.73162968553686" r="2.4879710609249459" />
  <circle style="fill: rgb(253, 141, 60);" class="node" cy="135.1364051924574" cx="632.14049425701739" r="1.6822603841260722" />
  <circle style="fill: rgb(253, 141, 60);" class="node" cy="144.03165843958894" cx="625.82232579632966" r="1.6822603841260722" />
  <circle style="fill: rgb(253, 141, 60);" class="node" cy="142.2816477789321" cx="645.65389674096389" r="2.4310491562286436" />
  <circle style="fill: rgb(253, 141, 60);" class="node" cy="141.59759439520164" cx="612.79502252048519" r="2.4556058315617348" />
  <circle style="fill: rgb(253, 141, 60);" class="node" cy="123.78382914522942" cx="604.79808409145278" r="2.4474476501040834" />
  <circle style="fill: rgb(253, 141, 60);" class="node" cy="124.04692855499331" cx="615.34292519565679" r="1.96468827043885" />
  <circle style="fill: rgb(253, 141, 60);" class="node" cy="133.24706880877361" cx="641.28850741684073" r="1.7972200755611429" />
  <circle style="fill: rgb(253, 141, 60);" class="node" cy="129.4604462805747" cx="584.14055354850962" r="1.7521415467935231" />
  <circle style="fill: rgb(253, 141, 60);" class="node" cy="147.4813217902408" cx="636.27608542955716" r="2.7784887978899606" />
  <circle style="fill: rgb(253, 141, 60);" class="node" cy="156.65085690544032" cx="641.96679210534512" r="1.7204650534085253" />
  <circle style="fill: rgb(253, 141, 60);" class="node" cy="125.767713613296" cx="594.25956451426794" r="1.9052558883257649" />
  <circle style="fill: rgb(253, 141, 60);" class="node" cy="183.18575922613613" cx="561.81575057022337" r="2.4494897427831779" />
  <circle style="fill: rgb(253, 141, 60);" class="node" cy="144.24581574441217" cx="566.84739387759748" r="1.6733200530681511" />
  <circle style="fill: rgb(253, 141, 60);" class="node" cy="146.93917923283402" cx="591.52256154688791" r="1.7521415467935231" />
  <circle style="fill: rgb(253, 141, 60);" class="node" cy="153.1071690213312" cx="561.21538311430686" r="1.8303005217723125" />
  <circle style="fill: rgb(253, 141, 60);" class="node" cy="125.66183073672352" cx="627.70754369372355" r="1.7291616465790582" />
  <circle style="fill: rgb(253, 141, 60);" class="node" cy="133.15644943829616" cx="620.09219736714988" r="1.8814887722226779" />
  <circle style="fill: rgb(253, 141, 60);" class="node" cy="137.18777080107049" cx="595.87591891068541" r="1.6248076809271921" />
  <circle style="fill: rgb(198, 219, 239);" class="node" cy="175.07969575554728" cx="609.03303263907378" r="4.5" />
  <circle style="fill: rgb(253, 141, 60);" class="node" cy="262.37523879241934" cx="636.51724503095534" r="2.9034462281915951" />
  <circle style="fill: rgb(253, 141, 60);" class="node" cy="264.00574776360816" cx="613.999827145307" r="3.9420806688854051" />
  <circle style="fill: rgb(253, 141, 60);" class="node" cy="217.34901090105848" cx="655.96239209336454" r="3.1144823004794873" />
  <circle style="fill: rgb(253, 141, 60);" class="node" cy="245.76215737428842" cx="592.7814174298037" r="11.7881296226331" />
  <circle style="fill: rgb(253, 141, 60);" class="node" cy="195.05947305118858" cx="646.48403017347346" r="3.9924929555354263" />
  <circle style="fill: rgb(253, 141, 60);" class="node" cy="242.80098984177795" cx="583.70657134734392" r="6.4265076052238514" />
  <circle style="fill: rgb(253, 141, 60);" class="node" cy="205.43814155828309" cx="598.63878980554136" r="2.8124722220850464" />
  <circle style="fill: rgb(253, 141, 60);" class="node" cy="232.50562412318484" cx="589.38355604305946" r="3.3526109228480423" />
  <circle style="fill: rgb(253, 141, 60);" class="node" cy="231.41766982702828" cx="578.78760249437516" r="4.3312815655415431" />
  <circle style="fill: rgb(253, 141, 60);" class="node" cy="196.35227632978868" cx="620.03102225915779" r="3.3181320046074112" />
  <circle style="fill: rgb(198, 219, 239);" class="node" cy="230.75088605654614" cx="623.15937028590656" r="4.5" />
  <circle style="fill: rgb(253, 141, 60);" class="node" cy="364.66722706080077" cx="591.854930094402" r="4.5880278987817844" />
  <circle style="fill: rgb(253, 141, 60);" class="node" cy="367.07006575410594" cx="624.41538445684955" r="3.6276714294434109" />
  <circle style="fill: rgb(253, 141, 60);" class="node" cy="356.96631436539917" cx="638.9423797359965" r="5.6133768802744752" />
  <circle style="fill: rgb(253, 141, 60);" class="node" cy="369.74999155681274" cx="605.5482086852021" r="6.1400325732035" />
  <circle style="fill: rgb(253, 141, 60);" class="node" cy="329.40147569836108" cx="581.08293851492988" r="4.9345719165901309" />
  <circle style="fill: rgb(253, 141, 60);" class="node" cy="340.10463577568225" cx="643.91954539994822" r="6.9562921157754731" />
  <circle style="fill: rgb(253, 141, 60);" class="node" cy="307.8735538391324" cx="615.05462246647232" r="4.1904653679513926" />
  <circle style="fill: rgb(253, 141, 60);" class="node" cy="314.55027214340976" cx="590.96983303989884" r="6.53299318842443" />
  <circle style="fill: rgb(253, 141, 60);" class="node" cy="343.79319853520133" cx="579.26787339451357" r="4.2673176586703736" />
  <circle style="fill: rgb(253, 141, 60);" class="node" cy="355.74292665595726" cx="582.79808204625567" r="7.63740793725201" />
  <circle style="fill: rgb(198, 219, 239);" class="node" cy="337.85820167470087" cx="612.83429749595018" r="4.5" />
  <circle style="fill: rgb(253, 141, 60);" class="node" cy="288.76342371350546" cx="524.820229880039" r="9.0873538502690643" />
  <circle style="fill: rgb(253, 141, 60);" class="node" cy="329.11446228693666" cx="520.516425843551" r="10.000499987500625" />
  <circle style="fill: rgb(253, 141, 60);" class="node" cy="311.46396875165857" cx="513.15301082044357" r="9.0647669578428758" />
  <circle style="fill: rgb(253, 141, 60);" class="node" cy="291.19807055901509" cx="514.06311723945657" r="11.204909638189859" />
  <circle style="fill: rgb(253, 141, 60);" class="node" cy="334.40182784631975" cx="549.99274663527945" r="4.8207883172775805" />
  <circle style="fill: rgb(253, 141, 60);" class="node" cy="318.74070414909374" cx="527.122720004048" r="10.484750831564858" />
  <circle style="fill: rgb(253, 141, 60);" class="node" cy="238.92028092024583" cx="477.60644515054742" r="9.6716079325001587" />
  <circle style="fill: rgb(253, 141, 60);" class="node" cy="229.39190126989814" cx="486.16904466420596" r="3.5114099732158879" />
  <circle style="fill: rgb(198, 219, 239);" class="node" cy="263.354817816689" cx="514.62116152383533" r="4.5" />
  <circle style="fill: rgb(253, 141, 60);" class="node" cy="265.10594630971661" cx="535.98588200053189" r="1.8303005217723125" />
  <circle style="fill: rgb(253, 141, 60);" class="node" cy="333.07265878432952" cx="539.12509490200193" r="1.9570385790780924" />
  <circle style="fill: rgb(253, 141, 60);" class="node" cy="267.51294607170871" cx="547.40078990416623" r="2.9563490998188966" />
  <circle style="fill: rgb(253, 141, 60);" class="node" cy="315.87641355246632" cx="454.03841114863275" r="5.6258332716140815" />
  <circle style="fill: rgb(253, 141, 60);" class="node" cy="304.3644367586366" cx="454.4926412954519" r="5.3056573579529234" />
  <circle style="fill: rgb(253, 141, 60);" class="node" cy="326.90634406086269" cx="458.13433936207014" r="5.801723881744115" />
  <circle style="fill: rgb(198, 219, 239);" class="node" cy="309.8308012696549" cx="497.49380254685667" r="4.5" />
  <circle style="fill: rgb(253, 141, 60);" class="node" cy="272.77270434917432" cx="525.20227324673988" r="13.306013678032951" />
  <circle style="fill: rgb(253, 141, 60);" class="node" cy="280.13954218546985" cx="517.653583835308" r="3.8548670534792762" />
  <circle style="fill: rgb(253, 141, 60);" class="node" cy="263.22129445189751" cx="459.19415821952583" r="7.9793483443198543" />
  <circle style="fill: rgb(253, 141, 60);" class="node" cy="272.87219270360993" cx="455.82531935744345" r="3.5057096285916209" />
  <circle style="fill: rgb(253, 141, 60);" class="node" cy="283.59583210296421" cx="456.17087584077524" r="4.5376205218153709" />
  <circle style="fill: rgb(253, 141, 60);" class="node" cy="254.71050264577343" cx="465.56642837350512" r="4.7864391775097284" />
  <circle style="fill: rgb(198, 219, 239);" class="node" cy="282.08583035383987" cx="498.74095861030924" r="4.5" />
  <circle style="fill: rgb(253, 141, 60);" class="node" cy="332.091589329649" cx="529.85476128367418" r="7.4558701705434753" />
  <circle style="fill: rgb(253, 141, 60);" class="node" cy="300.7675010451552" cx="511.50995394084771" r="13.826785598974189" />
  <circle style="fill: rgb(253, 141, 60);" class="node" cy="303.9161954019628" cx="522.042992267006" r="8.2987950932650456" />
  <circle style="fill: rgb(253, 141, 60);" class="node" cy="275.78833125357176" cx="534.65467545547017" r="8.0975304877474841" />
  <circle style="fill: rgb(253, 141, 60);" class="node" cy="320.70309841754664" cx="515.05668460361483" r="14.84115898439202" />
  <circle style="fill: rgb(198, 219, 239);" class="node" cy="301.44276408054179" cx="555.30625895180958" r="4.5" />
  <circle style="fill: rgb(253, 141, 60);" class="node" cy="420.26519755536111" cx="685.88034645409641" r="3.6083237105337433" />
  <circle style="fill: rgb(253, 141, 60);" class="node" cy="435.02239071581914" cx="687.85769887434014" r="15.682155464093578" />
  <circle style="fill: rgb(253, 141, 60);" class="node" cy="409.98635933065782" cx="689.68783157256689" r="2.5534290669607409" />
  <circle style="fill: rgb(253, 141, 60);" class="node" cy="400.46638947395553" cx="681.09642767599769" r="2.5219040425836985" />
  <circle style="fill: rgb(253, 141, 60);" class="node" cy="424.99301260029972" cx="694.47430139589335" r="8.1871851084484462" />
  <circle style="fill: rgb(198, 219, 239);" class="node" cy="415.62557094054216" cx="647.98829127567035" r="4.5" />
  <circle style="fill: rgb(253, 141, 60);" class="node" cy="462.89049648469859" cx="628.25645555102938" r="4.6238512086787562" />
  <circle style="fill: rgb(253, 141, 60);" class="node" cy="456.48092363577632" cx="663.79175192903733" r="6.1838499334961226" />
  <circle style="fill: rgb(253, 141, 60);" class="node" cy="456.91753591471115" cx="653.36491632901323" r="3.6783148315499039" />
  <circle style="fill: rgb(253, 141, 60);" class="node" cy="431.98087339560294" cx="667.5911551885016" r="6.830080526611674" />
  <circle style="fill: rgb(253, 141, 60);" class="node" cy="418.85523940248333" cx="663.3729566342364" r="5.1468436929831087" />
  <circle style="fill: rgb(253, 141, 60);" class="node" cy="434.90454849435946" cx="600.185639172406" r="5.3216538782600278" />
  <circle style="fill: rgb(253, 141, 60);" class="node" cy="443.2716470186607" cx="662.39464890972158" r="6.99714227381436" />
  <circle style="fill: rgb(253, 141, 60);" class="node" cy="403.07858275022556" cx="650.07555295512134" r="2.7622454633866265" />
  <circle style="fill: rgb(253, 141, 60);" class="node" cy="463.29569780745555" cx="644.08984768635344" r="7.2263407060558666" />
  <circle style="fill: rgb(253, 141, 60);" class="node" cy="453.48309816420516" cx="609.0172356069977" r="8.8667919790643559" />
  <circle style="fill: rgb(253, 141, 60);" class="node" cy="446.64232705401076" cx="671.83361918894525" r="9.1842256069850556" />
  <circle style="fill: rgb(198, 219, 239);" class="node" cy="431.83823763394832" cx="632.17782555410508" r="4.5" />
  <circle style="fill: rgb(253, 141, 60);" class="node" cy="454.00714892098438" cx="512.02726165135175" r="14.333178293735134" />
  <circle style="fill: rgb(253, 141, 60);" class="node" cy="439.70242348063124" cx="500.94761190270822" r="14.066982618884548" />
  <circle style="fill: rgb(253, 141, 60);" class="node" cy="449.54589978523859" cx="501.53522311647504" r="10.173003489628814" />
  <circle style="fill: rgb(253, 141, 60);" class="node" cy="421.79925496802969" cx="495.76911769988919" r="5.74543296888929" />
  <circle style="fill: rgb(253, 141, 60);" class="node" cy="451.541072552809" cx="541.03126136134915" r="13.921925154230646" />
  <circle style="fill: rgb(253, 141, 60);" class="node" cy="441.52928659958206" cx="448.38799244315015" r="2.6419689627245813" />
  <circle style="fill: rgb(253, 141, 60);" class="node" cy="427.27476590301825" cx="442.11751113261414" r="7.4625732827222535" />
  <circle style="fill: rgb(253, 141, 60);" class="node" cy="400.694150975941" cx="446.39064207087995" r="1.8788294228055935" />
  <circle style="fill: rgb(253, 141, 60);" class="node" cy="413.37744463698186" cx="441.56792842242731" r="4.7402531577965323" />
  <circle style="fill: rgb(198, 219, 239);" class="node" cy="421.02672225397106" cx="479.46622280493034" r="4.5" />
  <circle style="fill: rgb(253, 141, 60);" class="node" cy="433.34737064434961" cx="493.47795845551394" r="10.618380290797651" />
  <circle style="fill: rgb(253, 141, 60);" class="node" cy="400.42910149712571" cx="499.66443590283717" r="8.45399313933954" />
  <circle style="fill: rgb(253, 141, 60);" class="node" cy="410.40032631545461" cx="494.75235516316377" r="9.96493853468249" />
  <circle style="fill: rgb(198, 219, 239);" class="node" cy="421.39976762015033" cx="533.13147347181223" r="4.5" />
  <circle style="fill: rgb(253, 141, 60);" class="node" cy="406.86313716378612" cx="532.26956942535753" r="4.80936586256442" />
  <circle style="fill: rgb(253, 141, 60);" class="node" cy="380.04973607430207" cx="541.74673432161" r="4.33589667773576" />
  <circle style="fill: rgb(253, 141, 60);" class="node" cy="396.43050872497548" cx="529.161063771989" r="4.1243181254602561" />
  <circle style="fill: rgb(253, 141, 60);" class="node" cy="387.06309678602094" cx="532.89435543836487" r="3.3421549934136805" />
  <circle style="fill: rgb(198, 219, 239);" class="node" cy="402.51699852529475" cx="567.40926738720759" r="4.5" />
  <circle style="fill: rgb(253, 141, 60);" class="node" cy="422.95824583204347" cx="544.3360224745752" r="14.442645187083977" />
  <circle style="fill: rgb(253, 141, 60);" class="node" cy="440.14373611521637" cx="539.20169386460941" r="6.7926430790966776" />
  <circle style="fill: rgb(253, 141, 60);" class="node" cy="457.74178981470908" cx="551.00311365772029" r="10.261578825892242" />
  <circle style="fill: rgb(198, 219, 239);" class="node" cy="429.44303749241726" cx="574.45795762460659" r="4.5" />
  <circle style="fill: rgb(253, 141, 60);" class="node" cy="550.90164530584116" cx="688.05828907677142" r="6.6790717917986182" />
  <circle style="fill: rgb(253, 141, 60);" class="node" cy="541.50032677279569" cx="694.93101473709044" r="7.9460682101275726" />
  <circle style="fill: rgb(253, 141, 60);" class="node" cy="555.37181804152772" cx="676.4161174857054" r="5.8685603004484843" />
  <circle style="fill: rgb(198, 219, 239);" class="node" cy="519.88474590852957" cx="663.610736445665" r="4.5" />
  <circle style="fill: rgb(253, 141, 60);" class="node" cy="497.31204947202019" cx="727.4293694987864" r="5.6382621436041793" />
  <circle style="fill: rgb(253, 141, 60);" class="node" cy="474.63092394874582" cx="729.2962034961339" r="6.3718129288295966" />
  <circle style="fill: rgb(253, 141, 60);" class="node" cy="507.69891893799127" cx="730.16994312299448" r="6.4327288144301562" />
  <circle style="fill: rgb(253, 141, 60);" class="node" cy="484.43373020853659" cx="731.06674716783459" r="4.1109609582188931" />
  <circle style="fill: rgb(253, 141, 60);" class="node" cy="493.32117411430585" cx="737.02938093693706" r="4.2778499272414878" />
  <circle style="fill: rgb(198, 219, 239);" class="node" cy="488.73630936439611" cx="690.52660753861915" r="4.5" />
  <circle style="fill: rgb(253, 141, 60);" class="node" cy="533.88725424110169" cx="708.14808726802414" r="7.224264668462804" />
  <circle style="fill: rgb(253, 141, 60);" class="node" cy="516.06202328016911" cx="716.78340171673642" r="5.6258332716140815" />
  <circle style="fill: rgb(253, 141, 60);" class="node" cy="526.8823139169557" cx="716.42671861892632" r="5.9236812878479546" />
  <circle style="fill: rgb(198, 219, 239);" class="node" cy="506.50438878995607" cx="678.99648505288269" r="4.5" />
  <circle style="fill: rgb(253, 141, 60);" class="node" cy="513.31506610046961" cx="649.27296722990309" r="3.5860842154082215" />
  <circle style="fill: rgb(253, 141, 60);" class="node" cy="560.26983495129616" cx="657.56998096551183" r="9.9779757466131365" />
  <circle style="fill: rgb(253, 141, 60);" class="node" cy="562.29257076356225" cx="631.06517356291261" r="6.2441973062996663" />
  <circle style="fill: rgb(253, 141, 60);" class="node" cy="563.81739501241316" cx="644.68112254016535" r="5.6586217403180434" />
  <circle style="fill: rgb(198, 219, 239);" class="node" cy="526.5728201084205" cx="641.52660350353381" r="4.5" />
  <circle style="fill: rgb(253, 141, 60);" class="node" cy="528.33067146795906" cx="557.56208255491185" r="8.2006097334283616" />
  <circle style="fill: rgb(253, 141, 60);" class="node" cy="505.59186200407049" cx="551.53429531321308" r="6.1049160518388783" />
  <circle style="fill: rgb(253, 141, 60);" class="node" cy="518.58390643541611" cx="563.23794859661052" r="9.6524608261313354" />
  <circle style="fill: rgb(253, 141, 60);" class="node" cy="547.36901384941393" cx="590.40757360099758" r="10.955820370926132" />
  <circle style="fill: rgb(253, 141, 60);" class="node" cy="529.9189475695116" cx="571.99878184932152" r="6.9663476800975133" />
  <circle style="fill: rgb(253, 141, 60);" class="node" cy="538.65213331754933" cx="611.85126633714958" r="9.171150418568" />
  <circle style="fill: rgb(253, 141, 60);" class="node" cy="495.02720594713372" cx="558.3938649160458" r="6.9742383096650782" />
  <circle style="fill: rgb(253, 141, 60);" class="node" cy="543.45879700925741" cx="601.10166739369834" r="5.63382640840131" />
  <circle style="fill: rgb(253, 141, 60);" class="node" cy="538.84037713529187" cx="585.30441718020268" r="8.8774996479864754" />
  <circle style="fill: rgb(253, 141, 60);" class="node" cy="488.57747802247951" cx="566.8138237189039" r="11.344602240713423" />
  <circle style="fill: rgb(253, 141, 60);" class="node" cy="537.04219774536853" cx="564.67479925167686" r="5.2230259428802386" />
  <circle style="fill: rgb(253, 141, 60);" class="node" cy="543.1041637408631" cx="575.337359598068" r="11.11215550647128" />
  <circle style="fill: rgb(253, 141, 60);" class="node" cy="517.610957233301" cx="552.19346751267972" r="2.9495762407505248" />
  <circle style="fill: rgb(253, 141, 60);" class="node" cy="480.36927228040241" cx="576.84521367994739" r="9.5503926620846329" />
  <circle style="fill: rgb(253, 141, 60);" class="node" cy="506.06030858543329" cx="561.90597322578265" r="9.5869703243516931" />
  <circle style="fill: rgb(198, 219, 239);" class="node" cy="507.54662840693891" cx="595.8788281738149" r="4.5" />
  <circle style="fill: rgb(253, 141, 60);" class="node" cy="479.61998803697196" cx="604.67773321903007" r="4.9899899799498595" />
  <circle style="fill: rgb(253, 141, 60);" class="node" cy="506.7775919315585" cx="615.01427714899717" r="7.2443081105099338" />
  <circle style="fill: rgb(253, 141, 60);" class="node" cy="503.4444852993845" cx="663.36728261001974" r="6.4730209330729043" />
  <circle style="fill: rgb(253, 141, 60);" class="node" cy="515.40443682884984" cx="629.31750407630545" r="5.0803543183522155" />
  <circle style="fill: rgb(253, 141, 60);" class="node" cy="489.40031155765269" cx="670.94085385874291" r="4.4977772288098041" />
  <circle style="fill: rgb(198, 219, 239);" class="node" cy="483.18659240200884" cx="636.18770040500328" r="4.5" />
  <circle style="fill: rgb(253, 141, 60);" class="node" cy="392.2139465814048" cx="629.60778570243951" r="12.860793132618221" />
  <circle style="fill: rgb(198, 219, 239);" class="node" cy="409.48563331492676" cx="606.02868648747813" r="4.5" />
  <circle style="fill: rgb(198, 219, 239);" class="node" cy="320" cx="640" r="4.5" />
</svg>