<?xml version="1.0" encoding="utf-8" standalone="no"?>
<svg xmlns:xsd="http://www.w3.org/2001/XMLSchema" xmlns:xsi="http://www.w3.org/2001/XMLSchema-instance" width="1600px" height="1000px" version="1.1" xmlns="http://www.w3.org/2000/svg" xmlns:xlink="http://www.w3.org/1999/xlink">
  <defs>
    <style type="text/css">

        .node {
            stroke: #fff;
            stroke-width: 0.5px;
        }
        .link {
            stroke: #CCC;
            stroke-opacity: .6;
        }
    
</style>
  </defs>
  <line style="stroke-width: 0.5;" class="link" y2="568.397269419357" x2="813.5385803182578" y1="608.54794257554943" x1="860.15776654982085" />
  <line style="stroke-width: 0.5;" class="link" y2="568.397269419357" x2="813.5385803182578" y1="542.10355672437765" x1="795.25502442143556" />
  <line style="stroke-width: 0.5;" class="link" y2="568.397269419357" x2="813.5385803182578" y1="539.094411959871" x1="821.64487254903406" />
  <line style="stroke-width: 0.5;" class="link" y2="542.10355672437765" x2="795.25502442143556" y1="539.094411959871" x1="821.64487254903406" />
  <line style="stroke-width: 0.5;" class="link" y2="568.397269419357" x2="813.5385803182578" y1="620.13041240497819" x1="824.15437215943439" />
  <line style="stroke-width: 0.5;" class="link" y2="568.397269419357" x2="813.5385803182578" y1="623.735956863514" x1="777.73254458431882" />
  <line style="stroke-width: 0.5;" class="link" y2="568.397269419357" x2="813.5385803182578" y1="636.4429674588331" x1="832.8336303079551" />
  <line style="stroke-width: 0.5;" class="link" y2="568.397269419357" x2="813.5385803182578" y1="638.07295677101172" x1="809.68959844416315" />
  <line style="stroke-width: 0.5;" class="link" y2="568.397269419357" x2="813.5385803182578" y1="625.66883238874937" x1="795.64084733220886" />
  <line style="stroke-width: 0.5;" class="link" y2="568.397269419357" x2="813.5385803182578" y1="624.516084067359" x1="849.92644911018488" />
  <line style="stroke-width: 0.5;" class="link" y2="508.04429462552429" x2="841.81332835988746" y1="467.505996554073" x1="800.1635326091091" />
  <line style="stroke-width: 0.5;" class="link" y2="539.094411959871" x2="821.64487254903406" y1="467.505996554073" x1="800.1635326091091" />
  <line style="stroke-width: 0.5;" class="link" y2="542.10355672437765" x2="795.25502442143556" y1="467.505996554073" x1="800.1635326091091" />
  <line style="stroke-width: 0.5;" class="link" y2="568.397269419357" x2="813.5385803182578" y1="467.505996554073" x1="800.1635326091091" />
  <line style="stroke-width: 0.5;" class="link" y2="467.505996554073" x2="800.1635326091091" y1="493.8161102128783" x1="731.98211442903471" />
  <line style="stroke-width: 0.5;" class="link" y2="467.505996554073" x2="800.1635326091091" y1="485.69291263445285" x1="861.08244020297923" />
  <line style="stroke-width: 0.5;" class="link" y2="467.505996554073" x2="800.1635326091091" y1="502.80569856806238" x1="863.3314097819183" />
  <line style="stroke-width: 0.5;" class="link" y2="467.505996554073" x2="800.1635326091091" y1="522.49081705388392" x1="853.94597087789555" />
  <line style="stroke-width: 0.5;" class="link" y2="431.64529036772" x2="702.63735639991671" y1="476.87724767511781" x1="666.25267502419706" />
  <line style="stroke-width: 0.5;" class="link" y2="431.64529036772" x2="702.63735639991671" y1="430.438631402413" x1="657.85152982384193" />
  <line style="stroke-width: 0.5;" class="link" y2="476.87724767511781" x2="666.25267502419706" y1="430.438631402413" x1="657.85152982384193" />
  <line style="stroke-width: 0.5;" class="link" y2="431.64529036772" x2="702.63735639991671" y1="458.27917753929347" x1="671.61738322935832" />
  <line style="stroke-width: 0.5;" class="link" y2="476.87724767511781" x2="666.25267502419706" y1="458.27917753929347" x1="671.61738322935832" />
  <line style="stroke-width: 0.5;" class="link" y2="430.438631402413" x2="657.85152982384193" y1="458.27917753929347" x1="671.61738322935832" />
  <line style="stroke-width: 0.5;" class="link" y2="431.64529036772" x2="702.63735639991671" y1="447.77469959743854" x1="644.99515548836769" />
  <line style="stroke-width: 0.5;" class="link" y2="476.87724767511781" x2="666.25267502419706" y1="447.77469959743854" x1="644.99515548836769" />
  <line style="stroke-width: 0.5;" class="link" y2="430.438631402413" x2="657.85152982384193" y1="447.77469959743854" x1="644.99515548836769" />
  <line style="stroke-width: 0.5;" class="link" y2="458.27917753929347" x2="671.61738322935832" y1="447.77469959743854" x1="644.99515548836769" />
  <line style="stroke-width: 0.5;" class="link" y2="431.64529036772" x2="702.63735639991671" y1="446.05223925118162" x1="668.014877985693" />
  <line style="stroke-width: 0.5;" class="link" y2="476.87724767511781" x2="666.25267502419706" y1="446.05223925118162" x1="668.014877985693" />
  <line style="stroke-width: 0.5;" class="link" y2="430.438631402413" x2="657.85152982384193" y1="446.05223925118162" x1="668.014877985693" />
  <line style="stroke-width: 0.5;" class="link" y2="468.75473818917351" x2="648.062640882863" y1="446.05223925118162" x1="668.014877985693" />
  <line style="stroke-width: 0.5;" class="link" y2="447.77469959743854" x2="644.99515548836769" y1="446.05223925118162" x1="668.014877985693" />
  <line style="stroke-width: 0.5;" class="link" y2="431.64529036772" x2="702.63735639991671" y1="468.75473818917351" x1="648.062640882863" />
  <line style="stroke-width: 0.5;" class="link" y2="476.87724767511781" x2="666.25267502419706" y1="468.75473818917351" x1="648.062640882863" />
  <line style="stroke-width: 0.5;" class="link" y2="430.438631402413" x2="657.85152982384193" y1="468.75473818917351" x1="648.062640882863" />
  <line style="stroke-width: 0.5;" class="link" y2="458.27917753929347" x2="671.61738322935832" y1="468.75473818917351" x1="648.062640882863" />
  <line style="stroke-width: 0.5;" class="link" y2="447.77469959743854" x2="644.99515548836769" y1="468.75473818917351" x1="648.062640882863" />
  <line style="stroke-width: 0.5;" class="link" y2="446.05223925118162" x2="668.014877985693" y1="468.75473818917351" x1="648.062640882863" />
  <line style="stroke-width: 0.5;" class="link" y2="431.64529036772" x2="702.63735639991671" y1="456.63489673862426" x1="721.12137265899844" />
  <line style="stroke-width: 0.5;" class="link" y2="476.87724767511781" x2="666.25267502419706" y1="456.63489673862426" x1="721.12137265899844" />
  <line style="stroke-width: 0.5;" class="link" y2="430.438631402413" x2="657.85152982384193" y1="456.63489673862426" x1="721.12137265899844" />
  <line style="stroke-width: 0.5;" class="link" y2="458.27917753929347" x2="671.61738322935832" y1="456.63489673862426" x1="721.12137265899844" />
  <line style="stroke-width: 0.5;" class="link" y2="447.77469959743854" x2="644.99515548836769" y1="456.63489673862426" x1="721.12137265899844" />
  <line style="stroke-width: 0.5;" class="link" y2="446.05223925118162" x2="668.014877985693" y1="456.63489673862426" x1="721.12137265899844" />
  <line style="stroke-width: 0.5;" class="link" y2="468.75473818917351" x2="648.062640882863" y1="456.63489673862426" x1="721.12137265899844" />
  <line style="stroke-width: 0.5;" class="link" y2="493.8161102128783" x2="731.98211442903471" y1="456.63489673862426" x1="721.12137265899844" />
  <line style="stroke-width: 0.5;" class="link" y2="467.505996554073" x2="800.1635326091091" y1="456.63489673862426" x1="721.12137265899844" />
  <line style="stroke-width: 0.5;" class="link" y2="456.63489673862426" x2="721.12137265899844" y1="437.39395954035388" x1="772.52099021534627" />
  <line style="stroke-width: 0.5;" class="link" y2="467.505996554073" x2="800.1635326091091" y1="437.39395954035388" x1="772.52099021534627" />
  <line style="stroke-width: 0.5;" class="link" y2="437.39395954035388" x2="772.52099021534627" y1="423.62995509433182" x1="791.66068592055854" />
  <line style="stroke-width: 0.5;" class="link" y2="456.63489673862426" x2="721.12137265899844" y1="423.62995509433182" x1="791.66068592055854" />
  <line style="stroke-width: 0.5;" class="link" y2="467.505996554073" x2="800.1635326091091" y1="423.62995509433182" x1="791.66068592055854" />
  <line style="stroke-width: 0.5;" class="link" y2="437.39395954035388" x2="772.52099021534627" y1="425.08185618506735" x1="759.43665892068088" />
  <line style="stroke-width: 0.5;" class="link" y2="467.505996554073" x2="800.1635326091091" y1="425.08185618506735" x1="759.43665892068088" />
  <line style="stroke-width: 0.5;" class="link" y2="431.64529036772" x2="702.63735639991671" y1="425.08185618506735" x1="759.43665892068088" />
  <line style="stroke-width: 0.5;" class="link" y2="423.62995509433182" x2="791.66068592055854" y1="425.08185618506735" x1="759.43665892068088" />
  <line style="stroke-width: 0.5;" class="link" y2="467.505996554073" x2="800.1635326091091" y1="449.03160902449855" x1="793.64240559462428" />
  <line style="stroke-width: 0.5;" class="link" y2="456.63489673862426" x2="721.12137265899844" y1="449.03160902449855" x1="793.64240559462428" />
  <line style="stroke-width: 0.5;" class="link" y2="423.62995509433182" x2="791.66068592055854" y1="449.03160902449855" x1="793.64240559462428" />
  <line style="stroke-width: 0.5;" class="link" y2="437.39395954035388" x2="772.52099021534627" y1="449.03160902449855" x1="793.64240559462428" />
  <line style="stroke-width: 0.5;" class="link" y2="425.08185618506735" x2="759.43665892068088" y1="449.03160902449855" x1="793.64240559462428" />
  <line style="stroke-width: 0.5;" class="link" y2="467.505996554073" x2="800.1635326091091" y1="490.9757461698253" x1="829.71568876201229" />
  <line style="stroke-width: 0.5;" class="link" y2="449.03160902449855" x2="793.64240559462428" y1="490.9757461698253" x1="829.71568876201229" />
  <line style="stroke-width: 0.5;" class="link" y2="456.63489673862426" x2="721.12137265899844" y1="495.01584177123755" x1="758.348327556323" />
  <line style="stroke-width: 0.5;" class="link" y2="449.03160902449855" x2="793.64240559462428" y1="495.01584177123755" x1="758.348327556323" />
  <line style="stroke-width: 0.5;" class="link" y2="467.505996554073" x2="800.1635326091091" y1="495.01584177123755" x1="758.348327556323" />
  <line style="stroke-width: 0.5;" class="link" y2="456.63489673862426" x2="721.12137265899844" y1="501.93689915620996" x1="690.26331986213529" />
  <line style="stroke-width: 0.5;" class="link" y2="501.93689915620996" x2="690.26331986213529" y1="479.01875817455431" x1="746.21777710041033" />
  <line style="stroke-width: 0.5;" class="link" y2="467.505996554073" x2="800.1635326091091" y1="479.01875817455431" x1="746.21777710041033" />
  <line style="stroke-width: 0.5;" class="link" y2="456.63489673862426" x2="721.12137265899844" y1="479.01875817455431" x1="746.21777710041033" />
  <line style="stroke-width: 0.5;" class="link" y2="449.03160902449855" x2="793.64240559462428" y1="479.01875817455431" x1="746.21777710041033" />
  <line style="stroke-width: 0.5;" class="link" y2="467.505996554073" x2="800.1635326091091" y1="525.93750426544227" x1="832.56712776651432" />
  <line style="stroke-width: 0.5;" class="link" y2="467.505996554073" x2="800.1635326091091" y1="497.29478293009089" x1="788.4354562648914" />
  <line style="stroke-width: 0.5;" class="link" y2="449.03160902449855" x2="793.64240559462428" y1="497.29478293009089" x1="788.4354562648914" />
  <line style="stroke-width: 0.5;" class="link" y2="467.505996554073" x2="800.1635326091091" y1="520.82935132861326" x1="740.28643334189428" />
  <line style="stroke-width: 0.5;" class="link" y2="495.01584177123755" x2="758.348327556323" y1="520.82935132861326" x1="740.28643334189428" />
  <line style="stroke-width: 0.5;" class="link" y2="467.505996554073" x2="800.1635326091091" y1="538.93795441773307" x1="750.81671009094293" />
  <line style="stroke-width: 0.5;" class="link" y2="520.82935132861326" x2="740.28643334189428" y1="538.93795441773307" x1="750.81671009094293" />
  <line style="stroke-width: 0.5;" class="link" y2="495.01584177123755" x2="758.348327556323" y1="538.93795441773307" x1="750.81671009094293" />
  <line style="stroke-width: 0.5;" class="link" y2="520.82935132861326" x2="740.28643334189428" y1="522.49298539136134" x1="781.33272645074442" />
  <line style="stroke-width: 0.5;" class="link" y2="538.93795441773307" x2="750.81671009094293" y1="522.49298539136134" x1="781.33272645074442" />
  <line style="stroke-width: 0.5;" class="link" y2="467.505996554073" x2="800.1635326091091" y1="522.49298539136134" x1="781.33272645074442" />
  <line style="stroke-width: 0.5;" class="link" y2="495.01584177123755" x2="758.348327556323" y1="522.49298539136134" x1="781.33272645074442" />
  <line style="stroke-width: 0.5;" class="link" y2="520.82935132861326" x2="740.28643334189428" y1="541.04310486430643" x1="771.4142267998642" />
  <line style="stroke-width: 0.5;" class="link" y2="538.93795441773307" x2="750.81671009094293" y1="541.04310486430643" x1="771.4142267998642" />
  <line style="stroke-width: 0.5;" class="link" y2="522.49298539136134" x2="781.33272645074442" y1="541.04310486430643" x1="771.4142267998642" />
  <line style="stroke-width: 0.5;" class="link" y2="467.505996554073" x2="800.1635326091091" y1="541.04310486430643" x1="771.4142267998642" />
  <line style="stroke-width: 0.5;" class="link" y2="495.01584177123755" x2="758.348327556323" y1="541.04310486430643" x1="771.4142267998642" />
  <line style="stroke-width: 0.5;" class="link" y2="520.82935132861326" x2="740.28643334189428" y1="519.1622285301994" x1="761.33332092070043" />
  <line style="stroke-width: 0.5;" class="link" y2="538.93795441773307" x2="750.81671009094293" y1="519.1622285301994" x1="761.33332092070043" />
  <line style="stroke-width: 0.5;" class="link" y2="522.49298539136134" x2="781.33272645074442" y1="519.1622285301994" x1="761.33332092070043" />
  <line style="stroke-width: 0.5;" class="link" y2="541.04310486430643" x2="771.4142267998642" y1="519.1622285301994" x1="761.33332092070043" />
  <line style="stroke-width: 0.5;" class="link" y2="467.505996554073" x2="800.1635326091091" y1="519.1622285301994" x1="761.33332092070043" />
  <line style="stroke-width: 0.5;" class="link" y2="495.01584177123755" x2="758.348327556323" y1="519.1622285301994" x1="761.33332092070043" />
  <line style="stroke-width: 0.5;" class="link" y2="423.62995509433182" x2="791.66068592055854" y1="362.03025310614447" x1="787.90561349401969" />
  <line style="stroke-width: 0.5;" class="link" y2="423.62995509433182" x2="791.66068592055854" y1="377.89195660528645" x1="736.53248578193814" />
  <line style="stroke-width: 0.5;" class="link" y2="437.39395954035388" x2="772.52099021534627" y1="391.95067286260394" x1="808.70217114770571" />
  <line style="stroke-width: 0.5;" class="link" y2="423.62995509433182" x2="791.66068592055854" y1="391.95067286260394" x1="808.70217114770571" />
  <line style="stroke-width: 0.5;" class="link" y2="391.95067286260394" x2="808.70217114770571" y1="388.87684205695217" x1="761.290995576665" />
  <line style="stroke-width: 0.5;" class="link" y2="423.62995509433182" x2="791.66068592055854" y1="388.87684205695217" x1="761.290995576665" />
  <line style="stroke-width: 0.5;" class="link" y2="437.39395954035388" x2="772.52099021534627" y1="388.87684205695217" x1="761.290995576665" />
  <line style="stroke-width: 0.5;" class="link" y2="467.505996554073" x2="800.1635326091091" y1="457.82412237572964" x1="752.08290371350336" />
  <line style="stroke-width: 0.5;" class="link" y2="425.08185618506735" x2="759.43665892068088" y1="457.82412237572964" x1="752.08290371350336" />
  <line style="stroke-width: 0.5;" class="link" y2="449.03160902449855" x2="793.64240559462428" y1="457.82412237572964" x1="752.08290371350336" />
  <line style="stroke-width: 0.5;" class="link" y2="490.9757461698253" x2="829.71568876201229" y1="519.46898763905392" x1="811.37729299205648" />
  <line style="stroke-width: 0.5;" class="link" y2="467.505996554073" x2="800.1635326091091" y1="519.46898763905392" x1="811.37729299205648" />
  <line style="stroke-width: 0.5;" class="link" y2="490.9757461698253" x2="829.71568876201229" y1="542.24792477861" x1="889.59026886142942" />
  <line style="stroke-width: 0.5;" class="link" y2="462.2630621719382" x2="995.6821101728799" y1="444.35201481881404" x1="936.52649730424037" />
  <line style="stroke-width: 0.5;" class="link" y2="444.35201481881404" x2="936.52649730424037" y1="421.92101063637756" x1="855.90177969973411" />
  <line style="stroke-width: 0.5;" class="link" y2="423.62995509433182" x2="791.66068592055854" y1="421.92101063637756" x1="855.90177969973411" />
  <line style="stroke-width: 0.5;" class="link" y2="449.03160902449855" x2="793.64240559462428" y1="421.92101063637756" x1="855.90177969973411" />
  <line style="stroke-width: 0.5;" class="link" y2="467.505996554073" x2="800.1635326091091" y1="421.92101063637756" x1="855.90177969973411" />
  <line style="stroke-width: 0.5;" class="link" y2="425.08185618506735" x2="759.43665892068088" y1="405.12647942789016" x1="785.9558732455057" />
  <line style="stroke-width: 0.5;" class="link" y2="467.505996554073" x2="800.1635326091091" y1="405.12647942789016" x1="785.9558732455057" />
  <line style="stroke-width: 0.5;" class="link" y2="405.12647942789016" x2="785.9558732455057" y1="404.00956517038367" x1="731.44896438754688" />
  <line style="stroke-width: 0.5;" class="link" y2="437.39395954035388" x2="772.52099021534627" y1="404.00956517038367" x1="731.44896438754688" />
  <line style="stroke-width: 0.5;" class="link" y2="405.12647942789016" x2="785.9558732455057" y1="402.3400977533085" x1="767.81323728417374" />
  <line style="stroke-width: 0.5;" class="link" y2="425.08185618506735" x2="759.43665892068088" y1="402.3400977533085" x1="767.81323728417374" />
  <line style="stroke-width: 0.5;" class="link" y2="467.505996554073" x2="800.1635326091091" y1="402.3400977533085" x1="767.81323728417374" />
  <line style="stroke-width: 0.5;" class="link" y2="402.3400977533085" x2="767.81323728417374" y1="338.73615968511945" x1="748.25753854648678" />
  <line style="stroke-width: 0.5;" class="link" y2="362.03025310614447" x2="787.90561349401969" y1="338.73615968511945" x1="748.25753854648678" />
  <line style="stroke-width: 0.5;" class="link" y2="402.3400977533085" x2="767.81323728417374" y1="356.33690979804112" x1="713.0154153641372" />
  <line style="stroke-width: 0.5;" class="link" y2="402.3400977533085" x2="767.81323728417374" y1="371.48642293621765" x1="771.68737053496659" />
  <line style="stroke-width: 0.5;" class="link" y2="405.12647942789016" x2="785.9558732455057" y1="371.48642293621765" x1="771.68737053496659" />
  <line style="stroke-width: 0.5;" class="link" y2="425.08185618506735" x2="759.43665892068088" y1="371.48642293621765" x1="771.68737053496659" />
  <line style="stroke-width: 0.5;" class="link" y2="402.3400977533085" x2="767.81323728417374" y1="398.49765282887518" x1="822.42508408140236" />
  <line style="stroke-width: 0.5;" class="link" y2="405.12647942789016" x2="785.9558732455057" y1="398.49765282887518" x1="822.42508408140236" />
  <line style="stroke-width: 0.5;" class="link" y2="362.03025310614447" x2="787.90561349401969" y1="398.49765282887518" x1="822.42508408140236" />
  <line style="stroke-width: 0.5;" class="link" y2="371.48642293621765" x2="771.68737053496659" y1="398.49765282887518" x1="822.42508408140236" />
  <line style="stroke-width: 0.5;" class="link" y2="425.08185618506735" x2="759.43665892068088" y1="398.49765282887518" x1="822.42508408140236" />
  <line style="stroke-width: 0.5;" class="link" y2="467.505996554073" x2="800.1635326091091" y1="398.49765282887518" x1="822.42508408140236" />
  <line style="stroke-width: 0.5;" class="link" y2="431.64529036772" x2="702.63735639991671" y1="398.49765282887518" x1="822.42508408140236" />
  <line style="stroke-width: 0.5;" class="link" y2="423.62995509433182" x2="791.66068592055854" y1="398.49765282887518" x1="822.42508408140236" />
  <line style="stroke-width: 0.5;" class="link" y2="391.95067286260394" x2="808.70217114770571" y1="398.49765282887518" x1="822.42508408140236" />
  <line style="stroke-width: 0.5;" class="link" y2="421.92101063637756" x2="855.90177969973411" y1="398.49765282887518" x1="822.42508408140236" />
  <line style="stroke-width: 0.5;" class="link" y2="405.12647942789016" x2="785.9558732455057" y1="349.64246701846696" x1="803.84692392243107" />
  <line style="stroke-width: 0.5;" class="link" y2="398.49765282887518" x2="822.42508408140236" y1="349.64246701846696" x1="803.84692392243107" />
  <line style="stroke-width: 0.5;" class="link" y2="398.49765282887518" x2="822.42508408140236" y1="367.86204604756909" x1="847.83098149060038" />
  <line style="stroke-width: 0.5;" class="link" y2="391.95067286260394" x2="808.70217114770571" y1="367.86204604756909" x1="847.83098149060038" />
  <line style="stroke-width: 0.5;" class="link" y2="421.92101063637756" x2="855.90177969973411" y1="367.86204604756909" x1="847.83098149060038" />
  <line style="stroke-width: 0.5;" class="link" y2="398.49765282887518" x2="822.42508408140236" y1="406.16056988726052" x1="850.5379834173491" />
  <line style="stroke-width: 0.5;" class="link" y2="421.92101063637756" x2="855.90177969973411" y1="406.16056988726052" x1="850.5379834173491" />
  <line style="stroke-width: 0.5;" class="link" y2="449.03160902449855" x2="793.64240559462428" y1="406.16056988726052" x1="850.5379834173491" />
  <line style="stroke-width: 0.5;" class="link" y2="367.86204604756909" x2="847.83098149060038" y1="406.16056988726052" x1="850.5379834173491" />
  <line style="stroke-width: 0.5;" class="link" y2="467.505996554073" x2="800.1635326091091" y1="406.16056988726052" x1="850.5379834173491" />
  <line style="stroke-width: 0.5;" class="link" y2="406.16056988726052" x2="850.5379834173491" y1="383.40405104228421" x1="877.87554146397861" />
  <line style="stroke-width: 0.5;" class="link" y2="398.49765282887518" x2="822.42508408140236" y1="383.40405104228421" x1="877.87554146397861" />
  <line style="stroke-width: 0.5;" class="link" y2="421.92101063637756" x2="855.90177969973411" y1="383.40405104228421" x1="877.87554146397861" />
  <line style="stroke-width: 0.5;" class="link" y2="367.86204604756909" x2="847.83098149060038" y1="383.40405104228421" x1="877.87554146397861" />
  <line style="stroke-width: 0.5;" class="link" y2="421.92101063637756" x2="855.90177969973411" y1="376.72184887766304" x1="901.21713268961526" />
  <line style="stroke-width: 0.5;" class="link" y2="406.16056988726052" x2="850.5379834173491" y1="376.72184887766304" x1="901.21713268961526" />
  <line style="stroke-width: 0.5;" class="link" y2="383.40405104228421" x2="877.87554146397861" y1="376.72184887766304" x1="901.21713268961526" />
  <line style="stroke-width: 0.5;" class="link" y2="421.92101063637756" x2="855.90177969973411" y1="367.52165135038786" x1="882.21399284890913" />
  <line style="stroke-width: 0.5;" class="link" y2="406.16056988726052" x2="850.5379834173491" y1="367.52165135038786" x1="882.21399284890913" />
  <line style="stroke-width: 0.5;" class="link" y2="376.72184887766304" x2="901.21713268961526" y1="367.52165135038786" x1="882.21399284890913" />
  <line style="stroke-width: 0.5;" class="link" y2="383.40405104228421" x2="877.87554146397861" y1="367.52165135038786" x1="882.21399284890913" />
  <line style="stroke-width: 0.5;" class="link" y2="367.86204604756909" x2="847.83098149060038" y1="367.52165135038786" x1="882.21399284890913" />
  <line style="stroke-width: 0.5;" class="link" y2="398.49765282887518" x2="822.42508408140236" y1="367.52165135038786" x1="882.21399284890913" />
  <line style="stroke-width: 0.5;" class="link" y2="398.49765282887518" x2="822.42508408140236" y1="382.78228811083721" x1="860.47574759324175" />
  <line style="stroke-width: 0.5;" class="link" y2="406.16056988726052" x2="850.5379834173491" y1="382.78228811083721" x1="860.47574759324175" />
  <line style="stroke-width: 0.5;" class="link" y2="383.40405104228421" x2="877.87554146397861" y1="382.78228811083721" x1="860.47574759324175" />
  <line style="stroke-width: 0.5;" class="link" y2="421.92101063637756" x2="855.90177969973411" y1="382.78228811083721" x1="860.47574759324175" />
  <line style="stroke-width: 0.5;" class="link" y2="367.86204604756909" x2="847.83098149060038" y1="382.78228811083721" x1="860.47574759324175" />
  <line style="stroke-width: 0.5;" class="link" y2="391.95067286260394" x2="808.70217114770571" y1="382.78228811083721" x1="860.47574759324175" />
  <line style="stroke-width: 0.5;" class="link" y2="367.52165135038786" x2="882.21399284890913" y1="382.78228811083721" x1="860.47574759324175" />
  <line style="stroke-width: 0.5;" class="link" y2="376.72184887766304" x2="901.21713268961526" y1="382.78228811083721" x1="860.47574759324175" />
  <line style="stroke-width: 0.5;" class="link" y2="383.40405104228421" x2="877.87554146397861" y1="366.93885274922468" x1="869.1899735887672" />
  <line style="stroke-width: 0.5;" class="link" y2="421.92101063637756" x2="855.90177969973411" y1="366.93885274922468" x1="869.1899735887672" />
  <line style="stroke-width: 0.5;" class="link" y2="382.78228811083721" x2="860.47574759324175" y1="366.93885274922468" x1="869.1899735887672" />
  <line style="stroke-width: 0.5;" class="link" y2="367.86204604756909" x2="847.83098149060038" y1="366.93885274922468" x1="869.1899735887672" />
  <line style="stroke-width: 0.5;" class="link" y2="406.16056988726052" x2="850.5379834173491" y1="366.93885274922468" x1="869.1899735887672" />
  <line style="stroke-width: 0.5;" class="link" y2="367.52165135038786" x2="882.21399284890913" y1="366.93885274922468" x1="869.1899735887672" />
  <line style="stroke-width: 0.5;" class="link" y2="376.72184887766304" x2="901.21713268961526" y1="366.93885274922468" x1="869.1899735887672" />
  <line style="stroke-width: 0.5;" class="link" y2="398.49765282887518" x2="822.42508408140236" y1="366.93885274922468" x1="869.1899735887672" />
  <line style="stroke-width: 0.5;" class="link" y2="398.49765282887518" x2="822.42508408140236" y1="412.01834966890812" x1="869.44078372942772" />
  <line style="stroke-width: 0.5;" class="link" y2="382.78228811083721" x2="860.47574759324175" y1="412.01834966890812" x1="869.44078372942772" />
  <line style="stroke-width: 0.5;" class="link" y2="421.92101063637756" x2="855.90177969973411" y1="412.01834966890812" x1="869.44078372942772" />
  <line style="stroke-width: 0.5;" class="link" y2="366.93885274922468" x2="869.1899735887672" y1="412.01834966890812" x1="869.44078372942772" />
  <line style="stroke-width: 0.5;" class="link" y2="406.16056988726052" x2="850.5379834173491" y1="412.01834966890812" x1="869.44078372942772" />
  <line style="stroke-width: 0.5;" class="link" y2="367.52165135038786" x2="882.21399284890913" y1="412.01834966890812" x1="869.44078372942772" />
  <line style="stroke-width: 0.5;" class="link" y2="376.72184887766304" x2="901.21713268961526" y1="412.01834966890812" x1="869.44078372942772" />
  <line style="stroke-width: 0.5;" class="link" y2="383.40405104228421" x2="877.87554146397861" y1="412.01834966890812" x1="869.44078372942772" />
  <line style="stroke-width: 0.5;" class="link" y2="367.86204604756909" x2="847.83098149060038" y1="412.01834966890812" x1="869.44078372942772" />
  <line style="stroke-width: 0.5;" class="link" y2="467.505996554073" x2="800.1635326091091" y1="412.01834966890812" x1="869.44078372942772" />
  <line style="stroke-width: 0.5;" class="link" y2="366.93885274922468" x2="869.1899735887672" y1="396.43220559648586" x1="883.45143289133989" />
  <line style="stroke-width: 0.5;" class="link" y2="412.01834966890812" x2="869.44078372942772" y1="396.43220559648586" x1="883.45143289133989" />
  <line style="stroke-width: 0.5;" class="link" y2="421.92101063637756" x2="855.90177969973411" y1="396.43220559648586" x1="883.45143289133989" />
  <line style="stroke-width: 0.5;" class="link" y2="382.78228811083721" x2="860.47574759324175" y1="396.43220559648586" x1="883.45143289133989" />
  <line style="stroke-width: 0.5;" class="link" y2="406.16056988726052" x2="850.5379834173491" y1="396.43220559648586" x1="883.45143289133989" />
  <line style="stroke-width: 0.5;" class="link" y2="367.52165135038786" x2="882.21399284890913" y1="396.43220559648586" x1="883.45143289133989" />
  <line style="stroke-width: 0.5;" class="link" y2="376.72184887766304" x2="901.21713268961526" y1="396.43220559648586" x1="883.45143289133989" />
  <line style="stroke-width: 0.5;" class="link" y2="383.40405104228421" x2="877.87554146397861" y1="396.43220559648586" x1="883.45143289133989" />
  <line style="stroke-width: 0.5;" class="link" y2="367.86204604756909" x2="847.83098149060038" y1="396.43220559648586" x1="883.45143289133989" />
  <line style="stroke-width: 0.5;" class="link" y2="398.49765282887518" x2="822.42508408140236" y1="396.43220559648586" x1="883.45143289133989" />
  <line style="stroke-width: 0.5;" class="link" y2="412.01834966890812" x2="869.44078372942772" y1="392.94669796279015" x1="904.89026716901878" />
  <line style="stroke-width: 0.5;" class="link" y2="406.16056988726052" x2="850.5379834173491" y1="392.94669796279015" x1="904.89026716901878" />
  <line style="stroke-width: 0.5;" class="link" y2="383.40405104228421" x2="877.87554146397861" y1="392.94669796279015" x1="904.89026716901878" />
  <line style="stroke-width: 0.5;" class="link" y2="382.78228811083721" x2="860.47574759324175" y1="392.94669796279015" x1="904.89026716901878" />
  <line style="stroke-width: 0.5;" class="link" y2="396.43220559648586" x2="883.45143289133989" y1="392.94669796279015" x1="904.89026716901878" />
  <line style="stroke-width: 0.5;" class="link" y2="421.92101063637756" x2="855.90177969973411" y1="392.94669796279015" x1="904.89026716901878" />
  <line style="stroke-width: 0.5;" class="link" y2="366.93885274922468" x2="869.1899735887672" y1="392.94669796279015" x1="904.89026716901878" />
  <line style="stroke-width: 0.5;" class="link" y2="367.52165135038786" x2="882.21399284890913" y1="392.94669796279015" x1="904.89026716901878" />
  <line style="stroke-width: 0.5;" class="link" y2="376.72184887766304" x2="901.21713268961526" y1="392.94669796279015" x1="904.89026716901878" />
  <line style="stroke-width: 0.5;" class="link" y2="367.86204604756909" x2="847.83098149060038" y1="308.67281901702023" x1="863.48557697607293" />
  <line style="stroke-width: 0.5;" class="link" y2="423.62995509433182" x2="791.66068592055854" y1="431.169196711834" x1="821.46896708156373" />
  <line style="stroke-width: 0.5;" class="link" y2="467.505996554073" x2="800.1635326091091" y1="431.169196711834" x1="821.46896708156373" />
  <line style="stroke-width: 0.5;" class="link" y2="437.39395954035388" x2="772.52099021534627" y1="431.169196711834" x1="821.46896708156373" />
  <line style="stroke-width: 0.5;" class="link" y2="449.03160902449855" x2="793.64240559462428" y1="431.169196711834" x1="821.46896708156373" />
  <line style="stroke-width: 0.5;" class="link" y2="421.92101063637756" x2="855.90177969973411" y1="431.169196711834" x1="821.46896708156373" />
  <line style="stroke-width: 0.5;" class="link" y2="391.95067286260394" x2="808.70217114770571" y1="431.169196711834" x1="821.46896708156373" />
  <line style="stroke-width: 0.5;" class="link" y2="423.62995509433182" x2="791.66068592055854" y1="445.90438339860179" x1="819.39800097101863" />
  <line style="stroke-width: 0.5;" class="link" y2="431.169196711834" x2="821.46896708156373" y1="445.90438339860179" x1="819.39800097101863" />
  <line style="stroke-width: 0.5;" class="link" y2="467.505996554073" x2="800.1635326091091" y1="445.90438339860179" x1="819.39800097101863" />
  <line style="stroke-width: 0.5;" class="link" y2="437.39395954035388" x2="772.52099021534627" y1="445.90438339860179" x1="819.39800097101863" />
  <line style="stroke-width: 0.5;" class="link" y2="449.03160902449855" x2="793.64240559462428" y1="445.90438339860179" x1="819.39800097101863" />
  <line style="stroke-width: 0.5;" class="link" y2="421.92101063637756" x2="855.90177969973411" y1="445.90438339860179" x1="819.39800097101863" />
  <line style="stroke-width: 0.5;" class="link" y2="391.95067286260394" x2="808.70217114770571" y1="445.90438339860179" x1="819.39800097101863" />
  <line style="stroke-width: 0.5;" class="link" y2="423.62995509433182" x2="791.66068592055854" y1="421.32185503769722" x1="809.77451327177334" />
  <line style="stroke-width: 0.5;" class="link" y2="445.90438339860179" x2="819.39800097101863" y1="421.32185503769722" x1="809.77451327177334" />
  <line style="stroke-width: 0.5;" class="link" y2="431.169196711834" x2="821.46896708156373" y1="421.32185503769722" x1="809.77451327177334" />
  <line style="stroke-width: 0.5;" class="link" y2="467.505996554073" x2="800.1635326091091" y1="421.32185503769722" x1="809.77451327177334" />
  <line style="stroke-width: 0.5;" class="link" y2="437.39395954035388" x2="772.52099021534627" y1="421.32185503769722" x1="809.77451327177334" />
  <line style="stroke-width: 0.5;" class="link" y2="449.03160902449855" x2="793.64240559462428" y1="421.32185503769722" x1="809.77451327177334" />
  <line style="stroke-width: 0.5;" class="link" y2="391.95067286260394" x2="808.70217114770571" y1="421.32185503769722" x1="809.77451327177334" />
  <line style="stroke-width: 0.5;" class="link" y2="406.16056988726052" x2="850.5379834173491" y1="421.32185503769722" x1="809.77451327177334" />
  <line style="stroke-width: 0.5;" class="link" y2="449.03160902449855" x2="793.64240559462428" y1="444.44834920214333" x1="836.09845402587257" />
  <line style="stroke-width: 0.5;" class="link" y2="445.90438339860179" x2="819.39800097101863" y1="444.44834920214333" x1="836.09845402587257" />
  <line style="stroke-width: 0.5;" class="link" y2="431.169196711834" x2="821.46896708156373" y1="444.44834920214333" x1="836.09845402587257" />
  <line style="stroke-width: 0.5;" class="link" y2="421.32185503769722" x2="809.77451327177334" y1="444.44834920214333" x1="836.09845402587257" />
  <line style="stroke-width: 0.5;" class="link" y2="467.505996554073" x2="800.1635326091091" y1="444.44834920214333" x1="836.09845402587257" />
  <line style="stroke-width: 0.5;" class="link" y2="421.92101063637756" x2="855.90177969973411" y1="444.44834920214333" x1="836.09845402587257" />
  <line style="stroke-width: 0.5;" class="link" y2="391.95067286260394" x2="808.70217114770571" y1="444.44834920214333" x1="836.09845402587257" />
  <line style="stroke-width: 0.5;" class="link" y2="423.62995509433182" x2="791.66068592055854" y1="444.44834920214333" x1="836.09845402587257" />
  <line style="stroke-width: 0.5;" class="link" y2="425.08185618506735" x2="759.43665892068088" y1="468.04854701364468" x1="762.44045842436776" />
  <line style="stroke-width: 0.5;" class="link" y2="449.03160902449855" x2="793.64240559462428" y1="468.04854701364468" x1="762.44045842436776" />
  <line style="stroke-width: 0.5;" class="link" y2="467.505996554073" x2="800.1635326091091" y1="468.04854701364468" x1="762.44045842436776" />
  <line style="stroke-width: 0.5;" class="link" y2="421.92101063637756" x2="855.90177969973411" y1="423.411983986554" x1="925.887265089748" />
  <line style="stroke-width: 0.5;" class="link" y2="421.92101063637756" x2="855.90177969973411" y1="452.918969408344" x1="914.5067515409653" />
  <line style="stroke-width: 0.5;" class="link" y2="423.411983986554" x2="925.887265089748" y1="452.918969408344" x1="914.5067515409653" />
  <line style="stroke-width: 0.5;" class="link" y2="445.90438339860179" x2="819.39800097101863" y1="407.07290740150393" x1="833.46990156758352" />
  <line style="stroke-width: 0.5;" class="link" y2="431.169196711834" x2="821.46896708156373" y1="407.07290740150393" x1="833.46990156758352" />
  <line style="stroke-width: 0.5;" class="link" y2="423.62995509433182" x2="791.66068592055854" y1="407.07290740150393" x1="833.46990156758352" />
  <line style="stroke-width: 0.5;" class="link" y2="421.92101063637756" x2="855.90177969973411" y1="407.07290740150393" x1="833.46990156758352" />
  <line style="stroke-width: 0.5;" class="link" y2="391.95067286260394" x2="808.70217114770571" y1="407.07290740150393" x1="833.46990156758352" />
  <line style="stroke-width: 0.5;" class="link" y2="421.32185503769722" x2="809.77451327177334" y1="407.07290740150393" x1="833.46990156758352" />
  <line style="stroke-width: 0.5;" class="link" y2="444.44834920214333" x2="836.09845402587257" y1="407.07290740150393" x1="833.46990156758352" />
  <line style="stroke-width: 0.5;" class="link" y2="412.01834966890812" x2="869.44078372942772" y1="411.32378854503986" x1="898.06343568583009" />
  <line style="stroke-width: 0.5;" class="link" y2="396.43220559648586" x2="883.45143289133989" y1="411.32378854503986" x1="898.06343568583009" />
  <line style="stroke-width: 0.5;" class="link" y2="392.94669796279015" x2="904.89026716901878" y1="411.32378854503986" x1="898.06343568583009" />
  <line style="stroke-width: 0.5;" class="link" y2="366.93885274922468" x2="869.1899735887672" y1="411.32378854503986" x1="898.06343568583009" />
  <line style="stroke-width: 0.5;" class="link" y2="382.78228811083721" x2="860.47574759324175" y1="411.32378854503986" x1="898.06343568583009" />
  <line style="stroke-width: 0.5;" class="link" y2="421.92101063637756" x2="855.90177969973411" y1="411.32378854503986" x1="898.06343568583009" />
  <line style="stroke-width: 0.5;" class="link" y2="406.16056988726052" x2="850.5379834173491" y1="411.32378854503986" x1="898.06343568583009" />
  <circle style="fill: rgb(31, 119, 180); opacity: 0.8;" class="node" cy="568.397269419357" cx="813.5385803182578" r="4.872983346207417">
    <title style="" class="tooltip">name:	Myriel
type:	undefined
links:	15</title>
  </circle>
  <circle style="fill: rgb(31, 119, 180); opacity: 0.8;" class="node" cy="608.54794257554943" cx="860.15776654982085" r="4.872983346207417">
    <title style="" class="tooltip">name:	Napoleon
type:	undefined
links:	15</title>
  </circle>
  <circle style="fill: rgb(31, 119, 180); opacity: 0.8;" class="node" cy="542.10355672437765" cx="795.25502442143556" r="4.872983346207417">
    <title style="" class="tooltip">name:	Mlle.Baptistine
type:	undefined
links:	15</title>
  </circle>
  <circle style="fill: rgb(31, 119, 180); opacity: 0.8;" class="node" cy="539.094411959871" cx="821.64487254903406" r="4.872983346207417">
    <title style="" class="tooltip">name:	Mme.Magloire
type:	undefined
links:	15</title>
  </circle>
  <circle style="fill: rgb(31, 119, 180); opacity: 0.8;" class="node" cy="620.13041240497819" cx="824.15437215943439" r="4.872983346207417">
    <title style="" class="tooltip">name:	CountessdeLo
type:	undefined
links:	15</title>
  </circle>
  <circle style="fill: rgb(31, 119, 180); opacity: 0.8;" class="node" cy="623.735956863514" cx="777.73254458431882" r="4.872983346207417">
    <title style="" class="tooltip">name:	Geborand
type:	undefined
links:	15</title>
  </circle>
  <circle style="fill: rgb(31, 119, 180); opacity: 0.8;" class="node" cy="636.4429674588331" cx="832.8336303079551" r="4.872983346207417">
    <title style="" class="tooltip">name:	Champtercier
type:	undefined
links:	15</title>
  </circle>
  <circle style="fill: rgb(31, 119, 180); opacity: 0.8;" class="node" cy="638.07295677101172" cx="809.68959844416315" r="4.872983346207417">
    <title style="" class="tooltip">name:	Cravatte
type:	undefined
links:	15</title>
  </circle>
  <circle style="fill: rgb(31, 119, 180); opacity: 0.8;" class="node" cy="625.66883238874937" cx="795.64084733220886" r="4.872983346207417">
    <title style="" class="tooltip">name:	Count
type:	undefined
links:	15</title>
  </circle>
  <circle style="fill: rgb(31, 119, 180); opacity: 0.8;" class="node" cy="624.516084067359" cx="849.92644911018488" r="4.872983346207417">
    <title style="" class="tooltip">name:	OldMan
type:	undefined
links:	15</title>
  </circle>
  <circle style="fill: rgb(174, 199, 232); opacity: 0.8;" class="node" cy="508.04429462552429" cx="841.81332835988746" r="4.872983346207417">
    <title style="" class="tooltip">name:	Labarre
type:	undefined
links:	15</title>
  </circle>
  <circle style="fill: rgb(174, 199, 232); opacity: 0.8;" class="node" cy="467.505996554073" cx="800.1635326091091" r="4.872983346207417">
    <title style="" class="tooltip">name:	Valjean
type:	undefined
links:	15</title>
  </circle>
  <circle style="fill: rgb(255, 127, 14); opacity: 0.8;" class="node" cy="493.8161102128783" cx="731.98211442903471" r="4.872983346207417">
    <title style="" class="tooltip">name:	Marguerite
type:	undefined
links:	15</title>
  </circle>
  <circle style="fill: rgb(174, 199, 232); opacity: 0.8;" class="node" cy="485.69291263445285" cx="861.08244020297923" r="4.872983346207417">
    <title style="" class="tooltip">name:	Mme.deR
type:	undefined
links:	15</title>
  </circle>
  <circle style="fill: rgb(174, 199, 232); opacity: 0.8;" class="node" cy="502.80569856806238" cx="863.3314097819183" r="4.872983346207417">
    <title style="" class="tooltip">name:	Isabeau
type:	undefined
links:	15</title>
  </circle>
  <circle style="fill: rgb(174, 199, 232); opacity: 0.8;" class="node" cy="522.49081705388392" cx="853.94597087789555" r="4.872983346207417">
    <title style="" class="tooltip">name:	Gervais
type:	undefined
links:	15</title>
  </circle>
  <circle style="fill: rgb(255, 127, 14); opacity: 0.8;" class="node" cy="431.64529036772" cx="702.63735639991671" r="4.872983346207417">
    <title style="" class="tooltip">name:	Tholomyes
type:	undefined
links:	15</title>
  </circle>
  <circle style="fill: rgb(255, 127, 14); opacity: 0.8;" class="node" cy="476.87724767511781" cx="666.25267502419706" r="4.872983346207417">
    <title style="" class="tooltip">name:	Listolier
type:	undefined
links:	15</title>
  </circle>
  <circle style="fill: rgb(255, 127, 14); opacity: 0.8;" class="node" cy="430.438631402413" cx="657.85152982384193" r="4.872983346207417">
    <title style="" class="tooltip">name:	Fameuil
type:	undefined
links:	15</title>
  </circle>
  <circle style="fill: rgb(255, 127, 14); opacity: 0.8;" class="node" cy="458.27917753929347" cx="671.61738322935832" r="4.872983346207417">
    <title style="" class="tooltip">name:	Blacheville
type:	undefined
links:	15</title>
  </circle>
  <circle style="fill: rgb(255, 127, 14); opacity: 0.8;" class="node" cy="447.77469959743854" cx="644.99515548836769" r="4.872983346207417">
    <title style="" class="tooltip">name:	Favourite
type:	undefined
links:	15</title>
  </circle>
  <circle style="fill: rgb(255, 127, 14); opacity: 0.8;" class="node" cy="446.05223925118162" cx="668.014877985693" r="4.872983346207417">
    <title style="" class="tooltip">name:	Dahlia
type:	undefined
links:	15</title>
  </circle>
  <circle style="fill: rgb(255, 127, 14); opacity: 0.8;" class="node" cy="468.75473818917351" cx="648.062640882863" r="4.872983346207417">
    <title style="" class="tooltip">name:	Zephine
type:	undefined
links:	15</title>
  </circle>
  <circle style="fill: rgb(255, 127, 14); opacity: 0.8;" class="node" cy="456.63489673862426" cx="721.12137265899844" r="4.872983346207417">
    <title style="" class="tooltip">name:	Fantine
type:	undefined
links:	15</title>
  </circle>
  <circle style="fill: rgb(255, 187, 120); opacity: 0.8;" class="node" cy="437.39395954035388" cx="772.52099021534627" r="4.872983346207417">
    <title style="" class="tooltip">name:	Mme.Thenardier
type:	undefined
links:	15</title>
  </circle>
  <circle style="fill: rgb(255, 187, 120); opacity: 0.8;" class="node" cy="423.62995509433182" cx="791.66068592055854" r="4.872983346207417">
    <title style="" class="tooltip">name:	Thenardier
type:	undefined
links:	15</title>
  </circle>
  <circle style="fill: rgb(44, 160, 44); opacity: 0.8;" class="node" cy="425.08185618506735" cx="759.43665892068088" r="4.872983346207417">
    <title style="" class="tooltip">name:	Cosette
type:	undefined
links:	15</title>
  </circle>
  <circle style="fill: rgb(255, 187, 120); opacity: 0.8;" class="node" cy="449.03160902449855" cx="793.64240559462428" r="4.872983346207417">
    <title style="" class="tooltip">name:	Javert
type:	undefined
links:	15</title>
  </circle>
  <circle style="fill: rgb(152, 223, 138); opacity: 0.8;" class="node" cy="490.9757461698253" cx="829.71568876201229" r="4.872983346207417">
    <title style="" class="tooltip">name:	Fauchelevent
type:	undefined
links:	15</title>
  </circle>
  <circle style="fill: rgb(174, 199, 232); opacity: 0.8;" class="node" cy="495.01584177123755" cx="758.348327556323" r="4.872983346207417">
    <title style="" class="tooltip">name:	Bamatabois
type:	undefined
links:	15</title>
  </circle>
  <circle style="fill: rgb(255, 127, 14); opacity: 0.8;" class="node" cy="501.93689915620996" cx="690.26331986213529" r="4.872983346207417">
    <title style="" class="tooltip">name:	Perpetue
type:	undefined
links:	15</title>
  </circle>
  <circle style="fill: rgb(174, 199, 232); opacity: 0.8;" class="node" cy="479.01875817455431" cx="746.21777710041033" r="4.872983346207417">
    <title style="" class="tooltip">name:	Simplice
type:	undefined
links:	15</title>
  </circle>
  <circle style="fill: rgb(174, 199, 232); opacity: 0.8;" class="node" cy="525.93750426544227" cx="832.56712776651432" r="4.872983346207417">
    <title style="" class="tooltip">name:	Scaufflaire
type:	undefined
links:	15</title>
  </circle>
  <circle style="fill: rgb(174, 199, 232); opacity: 0.8;" class="node" cy="497.29478293009089" cx="788.4354562648914" r="4.872983346207417">
    <title style="" class="tooltip">name:	Woman1
type:	undefined
links:	15</title>
  </circle>
  <circle style="fill: rgb(174, 199, 232); opacity: 0.8;" class="node" cy="520.82935132861326" cx="740.28643334189428" r="4.872983346207417">
    <title style="" class="tooltip">name:	Judge
type:	undefined
links:	15</title>
  </circle>
  <circle style="fill: rgb(174, 199, 232); opacity: 0.8;" class="node" cy="538.93795441773307" cx="750.81671009094293" r="4.872983346207417">
    <title style="" class="tooltip">name:	Champmathieu
type:	undefined
links:	15</title>
  </circle>
  <circle style="fill: rgb(174, 199, 232); opacity: 0.8;" class="node" cy="522.49298539136134" cx="781.33272645074442" r="4.872983346207417">
    <title style="" class="tooltip">name:	Brevet
type:	undefined
links:	15</title>
  </circle>
  <circle style="fill: rgb(174, 199, 232); opacity: 0.8;" class="node" cy="541.04310486430643" cx="771.4142267998642" r="4.872983346207417">
    <title style="" class="tooltip">name:	Chenildieu
type:	undefined
links:	15</title>
  </circle>
  <circle style="fill: rgb(174, 199, 232); opacity: 0.8;" class="node" cy="519.1622285301994" cx="761.33332092070043" r="4.872983346207417">
    <title style="" class="tooltip">name:	Cochepaille
type:	undefined
links:	15</title>
  </circle>
  <circle style="fill: rgb(255, 187, 120); opacity: 0.8;" class="node" cy="362.03025310614447" cx="787.90561349401969" r="4.872983346207417">
    <title style="" class="tooltip">name:	Pontmercy
type:	undefined
links:	15</title>
  </circle>
  <circle style="fill: rgb(214, 39, 40); opacity: 0.8;" class="node" cy="377.89195660528645" cx="736.53248578193814" r="4.872983346207417">
    <title style="" class="tooltip">name:	Boulatruelle
type:	undefined
links:	15</title>
  </circle>
  <circle style="fill: rgb(255, 187, 120); opacity: 0.8;" class="node" cy="391.95067286260394" cx="808.70217114770571" r="4.872983346207417">
    <title style="" class="tooltip">name:	Eponine
type:	undefined
links:	15</title>
  </circle>
  <circle style="fill: rgb(255, 187, 120); opacity: 0.8;" class="node" cy="388.87684205695217" cx="761.290995576665" r="4.872983346207417">
    <title style="" class="tooltip">name:	Anzelma
type:	undefined
links:	15</title>
  </circle>
  <circle style="fill: rgb(44, 160, 44); opacity: 0.8;" class="node" cy="457.82412237572964" cx="752.08290371350336" r="4.872983346207417">
    <title style="" class="tooltip">name:	Woman2
type:	undefined
links:	15</title>
  </circle>
  <circle style="fill: rgb(152, 223, 138); opacity: 0.8;" class="node" cy="519.46898763905392" cx="811.37729299205648" r="4.872983346207417">
    <title style="" class="tooltip">name:	MotherInnocent
type:	undefined
links:	15</title>
  </circle>
  <circle style="fill: rgb(152, 223, 138); opacity: 0.8;" class="node" cy="542.24792477861" cx="889.59026886142942" r="4.872983346207417">
    <title style="" class="tooltip">name:	Gribier
type:	undefined
links:	15</title>
  </circle>
  <circle style="fill: rgb(255, 152, 150); opacity: 0.8;" class="node" cy="462.2630621719382" cx="995.6821101728799" r="4.872983346207417">
    <title style="" class="tooltip">name:	Jondrette
type:	undefined
links:	15</title>
  </circle>
  <circle style="fill: rgb(255, 152, 150); opacity: 0.8;" class="node" cy="444.35201481881404" cx="936.52649730424037" r="4.872983346207417">
    <title style="" class="tooltip">name:	Mme.Burgon
type:	undefined
links:	15</title>
  </circle>
  <circle style="fill: rgb(148, 103, 189); opacity: 0.8;" class="node" cy="421.92101063637756" cx="855.90177969973411" r="4.872983346207417">
    <title style="" class="tooltip">name:	Gavroche
type:	undefined
links:	15</title>
  </circle>
  <circle style="fill: rgb(44, 160, 44); opacity: 0.8;" class="node" cy="405.12647942789016" cx="785.9558732455057" r="4.872983346207417">
    <title style="" class="tooltip">name:	Gillenormand
type:	undefined
links:	15</title>
  </circle>
  <circle style="fill: rgb(44, 160, 44); opacity: 0.8;" class="node" cy="404.00956517038367" cx="731.44896438754688" r="4.872983346207417">
    <title style="" class="tooltip">name:	Magnon
type:	undefined
links:	15</title>
  </circle>
  <circle style="fill: rgb(44, 160, 44); opacity: 0.8;" class="node" cy="402.3400977533085" cx="767.81323728417374" r="4.872983346207417">
    <title style="" class="tooltip">name:	Mlle.Gillenormand
type:	undefined
links:	15</title>
  </circle>
  <circle style="fill: rgb(44, 160, 44); opacity: 0.8;" class="node" cy="338.73615968511945" cx="748.25753854648678" r="4.872983346207417">
    <title style="" class="tooltip">name:	Mme.Pontmercy
type:	undefined
links:	15</title>
  </circle>
  <circle style="fill: rgb(44, 160, 44); opacity: 0.8;" class="node" cy="356.33690979804112" cx="713.0154153641372" r="4.872983346207417">
    <title style="" class="tooltip">name:	Mlle.Vaubois
type:	undefined
links:	15</title>
  </circle>
  <circle style="fill: rgb(44, 160, 44); opacity: 0.8;" class="node" cy="371.48642293621765" cx="771.68737053496659" r="4.872983346207417">
    <title style="" class="tooltip">name:	Lt.Gillenormand
type:	undefined
links:	15</title>
  </circle>
  <circle style="fill: rgb(148, 103, 189); opacity: 0.8;" class="node" cy="398.49765282887518" cx="822.42508408140236" r="4.872983346207417">
    <title style="" class="tooltip">name:	Marius
type:	undefined
links:	15</title>
  </circle>
  <circle style="fill: rgb(44, 160, 44); opacity: 0.8;" class="node" cy="349.64246701846696" cx="803.84692392243107" r="4.872983346207417">
    <title style="" class="tooltip">name:	BaronessT
type:	undefined
links:	15</title>
  </circle>
  <circle style="fill: rgb(148, 103, 189); opacity: 0.8;" class="node" cy="367.86204604756909" cx="847.83098149060038" r="4.872983346207417">
    <title style="" class="tooltip">name:	Mabeuf
type:	undefined
links:	15</title>
  </circle>
  <circle style="fill: rgb(148, 103, 189); opacity: 0.8;" class="node" cy="406.16056988726052" cx="850.5379834173491" r="4.872983346207417">
    <title style="" class="tooltip">name:	Enjolras
type:	undefined
links:	15</title>
  </circle>
  <circle style="fill: rgb(148, 103, 189); opacity: 0.8;" class="node" cy="383.40405104228421" cx="877.87554146397861" r="4.872983346207417">
    <title style="" class="tooltip">name:	Combeferre
type:	undefined
links:	15</title>
  </circle>
  <circle style="fill: rgb(148, 103, 189); opacity: 0.8;" class="node" cy="376.72184887766304" cx="901.21713268961526" r="4.872983346207417">
    <title style="" class="tooltip">name:	Prouvaire
type:	undefined
links:	15</title>
  </circle>
  <circle style="fill: rgb(148, 103, 189); opacity: 0.8;" class="node" cy="367.52165135038786" cx="882.21399284890913" r="4.872983346207417">
    <title style="" class="tooltip">name:	Feuilly
type:	undefined
links:	15</title>
  </circle>
  <circle style="fill: rgb(148, 103, 189); opacity: 0.8;" class="node" cy="382.78228811083721" cx="860.47574759324175" r="4.872983346207417">
    <title style="" class="tooltip">name:	Courfeyrac
type:	undefined
links:	15</title>
  </circle>
  <circle style="fill: rgb(148, 103, 189); opacity: 0.8;" class="node" cy="366.93885274922468" cx="869.1899735887672" r="4.872983346207417">
    <title style="" class="tooltip">name:	Bahorel
type:	undefined
links:	15</title>
  </circle>
  <circle style="fill: rgb(148, 103, 189); opacity: 0.8;" class="node" cy="412.01834966890812" cx="869.44078372942772" r="4.872983346207417">
    <title style="" class="tooltip">name:	Bossuet
type:	undefined
links:	15</title>
  </circle>
  <circle style="fill: rgb(148, 103, 189); opacity: 0.8;" class="node" cy="396.43220559648586" cx="883.45143289133989" r="4.872983346207417">
    <title style="" class="tooltip">name:	Joly
type:	undefined
links:	15</title>
  </circle>
  <circle style="fill: rgb(148, 103, 189); opacity: 0.8;" class="node" cy="392.94669796279015" cx="904.89026716901878" r="4.872983346207417">
    <title style="" class="tooltip">name:	Grantaire
type:	undefined
links:	15</title>
  </circle>
  <circle style="fill: rgb(197, 176, 213); opacity: 0.8;" class="node" cy="308.67281901702023" cx="863.48557697607293" r="4.872983346207417">
    <title style="" class="tooltip">name:	MotherPlutarch
type:	undefined
links:	15</title>
  </circle>
  <circle style="fill: rgb(255, 187, 120); opacity: 0.8;" class="node" cy="431.169196711834" cx="821.46896708156373" r="4.872983346207417">
    <title style="" class="tooltip">name:	Gueulemer
type:	undefined
links:	15</title>
  </circle>
  <circle style="fill: rgb(255, 187, 120); opacity: 0.8;" class="node" cy="445.90438339860179" cx="819.39800097101863" r="4.872983346207417">
    <title style="" class="tooltip">name:	Babet
type:	undefined
links:	15</title>
  </circle>
  <circle style="fill: rgb(255, 187, 120); opacity: 0.8;" class="node" cy="421.32185503769722" cx="809.77451327177334" r="4.872983346207417">
    <title style="" class="tooltip">name:	Claquesous
type:	undefined
links:	15</title>
  </circle>
  <circle style="fill: rgb(255, 187, 120); opacity: 0.8;" class="node" cy="444.44834920214333" cx="836.09845402587257" r="4.872983346207417">
    <title style="" class="tooltip">name:	Montparnasse
type:	undefined
links:	15</title>
  </circle>
  <circle style="fill: rgb(44, 160, 44); opacity: 0.8;" class="node" cy="468.04854701364468" cx="762.44045842436776" r="4.872983346207417">
    <title style="" class="tooltip">name:	Toussaint
type:	undefined
links:	15</title>
  </circle>
  <circle style="fill: rgb(140, 86, 75); opacity: 0.8;" class="node" cy="423.411983986554" cx="925.887265089748" r="4.872983346207417">
    <title style="" class="tooltip">name:	Child1
type:	undefined
links:	15</title>
  </circle>
  <circle style="fill: rgb(140, 86, 75); opacity: 0.8;" class="node" cy="452.918969408344" cx="914.5067515409653" r="4.872983346207417">
    <title style="" class="tooltip">name:	Child2
type:	undefined
links:	15</title>
  </circle>
  <circle style="fill: rgb(255, 187, 120); opacity: 0.8;" class="node" cy="407.07290740150393" cx="833.46990156758352" r="4.872983346207417">
    <title style="" class="tooltip">name:	Brujon
type:	undefined
links:	15</title>
  </circle>
  <circle style="fill: rgb(148, 103, 189); opacity: 0.8;" class="node" cy="411.32378854503986" cx="898.06343568583009" r="4.872983346207417">
    <title style="" class="tooltip">name:	Mme.Hucheloup
type:	undefined
links:	15</title>
  </circle>
</svg>